<svg width="1452" height="181" viewBox="0 0 1452 181" fill="none" xmlns="http://www.w3.org/2000/svg">
<path d="M83.1902 74.2405C50.0597 69.7386 40.5977 64.509 40.5977 51.0842C40.5977 36.6081 54.0223 30.1383 73.9977 30.1383C95.914 30.1383 113.086 38.6298 113.328 58.0391H146.971C146.459 24.1537 119.07 0 75.75 0C32.4296 0 6.98185 19.9485 6.98185 52.5938C6.98185 82.7321 23.3989 95.1862 75.75 103.166C104.891 107.667 114.353 113.598 114.353 127.832C114.353 143.763 100.173 150.745 79.2274 150.745C50.3292 150.745 33.6426 137.321 33.4 117.615H0C0.512189 155.005 28.4129 180.911 78.23 180.911C120.337 180.911 147.996 160.746 147.996 126.592C147.996 95.6984 129.314 80.5215 83.2172 74.2674L83.1902 74.2405Z" fill="#171717"/>
<path d="M229.702 48.334C191.315 48.334 163.684 75.9921 163.684 114.325C163.684 152.659 191.342 180.856 230.43 180.856C265.313 180.856 289.224 160.18 292.728 136.026H262.078C259.571 144.976 249.138 154.195 231.427 154.195C211.263 154.195 198.324 142.765 195.574 122.547H294.211C300.195 79.9548 271.055 48.334 229.702 48.334ZM196.572 100.631C200.777 84.4297 212.746 74.9678 230.187 74.9678C247.629 74.9678 260.595 84.4028 264.585 100.631H196.599H196.572Z" fill="#171717"/>
<path d="M373.472 152.202C352.256 152.202 338.346 137.268 338.346 114.57C338.346 91.8717 352.283 76.9642 373.472 76.9642C390.428 76.9642 403.341 86.8306 406.71 101.549H438.331C435.015 70.1171 408.921 48.3086 373.229 48.3086C333.602 48.3086 305.701 76.2094 305.701 114.543C305.701 152.876 333.845 180.831 372.987 180.831C408.84 180.831 435.177 158.618 438.331 127.32H406.683C403.26 142.605 390.401 152.202 373.472 152.202Z" fill="#171717"/>
<path d="M516.207 48.334C476.58 48.334 448.193 75.9922 448.193 114.568C448.193 153.144 476.606 180.856 516.207 180.856C555.807 180.856 584.22 153.441 584.22 114.568C584.22 75.6957 556.077 48.334 516.207 48.334ZM516.207 152.2C495.045 152.2 480.812 137.509 480.812 114.568C480.812 91.6274 495.018 76.9626 516.207 76.9626C537.395 76.9626 551.602 91.897 551.602 114.568C551.602 137.239 537.638 152.2 516.207 152.2Z" fill="#171717"/>
<path d="M673.178 48.334C657.462 48.334 643.282 54.2916 635.788 68.7407H633.793V51.5689H602.9V177.594H633.793V104.863C633.793 87.1524 643.525 76.7199 660.454 76.7199C677.383 76.7199 686.872 86.6672 686.872 104.863V177.594H717.765V97.6388C717.765 66.9884 700.836 48.334 673.178 48.334Z" fill="#171717"/>
<path d="M840.826 3.20508V70.7332H839.128C830.393 55.2597 813.68 48.3317 796.265 48.3317C760.385 48.3317 735.477 75.9899 735.477 114.566C735.477 153.142 760.385 180.854 796.265 180.854C813.949 180.854 830.393 173.872 839.128 158.452H840.826V177.619H871.961V3.23206H840.826V3.20508ZM804.487 152.441C782.274 152.441 767.852 137.749 767.852 114.566C767.852 91.3825 782.274 76.7176 804.487 76.7176C826.7 76.7176 840.826 91.6521 840.826 114.566C840.826 137.48 826.646 152.441 804.487 152.441Z" fill="#171717"/>
<path d="M933.315 146.971V3.23438H900.67V177.621H1020.25V146.971H933.315Z" fill="#171717"/>
<path d="M1132.11 51.5689V70.7355H1130.36C1121.62 55.262 1104.96 48.334 1087.49 48.334C1051.64 48.334 1026.71 75.9922 1026.71 114.568C1026.71 153.144 1051.64 180.856 1087.49 180.856C1105.2 180.856 1121.62 173.874 1130.36 158.455H1132.11V177.621H1163.24V51.5957H1132.11V51.5689ZM1095.74 152.443C1073.58 152.443 1059.11 137.751 1059.11 114.568C1059.11 91.3848 1073.58 76.7199 1095.74 76.7199C1117.9 76.7199 1132.14 91.6544 1132.14 114.568C1132.14 137.482 1117.93 152.443 1095.74 152.443Z" fill="#171717"/>
<path d="M1258.94 48.334C1243.22 48.334 1229.04 54.2916 1221.55 68.7407H1219.55V51.5689H1188.66V177.594H1219.55V104.863C1219.55 87.1524 1229.28 76.7199 1246.21 76.7199C1263.14 76.7199 1272.63 86.6672 1272.63 104.863V177.594H1303.53V97.6388C1303.53 66.9884 1286.6 48.334 1258.94 48.334Z" fill="#171717"/>
<path d="M1386.74 48.334C1348.35 48.334 1320.72 75.9921 1320.72 114.325C1320.72 152.659 1348.38 180.856 1387.49 180.856C1422.35 180.856 1446.29 160.18 1449.74 136.026H1419.11C1416.61 144.976 1406.15 154.195 1388.46 154.195C1368.25 154.195 1355.33 142.765 1352.58 122.547H1451.22C1457.21 79.9548 1428.06 48.334 1386.71 48.334H1386.74ZM1353.61 100.631C1357.84 84.4297 1369.78 74.9678 1387.25 74.9678C1404.72 74.9678 1417.66 84.4028 1421.6 100.631H1353.61Z" fill="#171717"/>
</svg>
