<svg width="96" height="41" viewBox="0 0 96 41" fill="none" xmlns="http://www.w3.org/2000/svg">
<g clip-path="url(#clip0_2170_231)">
<path d="M19.6061 40.575C18.8936 40.575 18.2279 40.4438 17.6092 40.1813C16.9904 39.9188 16.4186 39.5251 15.8936 39.0001L4.9248 28.0875L5.8248 27.2438C6.0873 27.0188 6.37793 26.8782 6.69668 26.8219C7.01543 26.7657 7.34355 26.775 7.68106 26.85L14.7123 28.5375V9.75005C14.7123 9.52692 14.7881 9.33999 14.9396 9.18924C15.0907 9.03811 15.2782 8.96255 15.5021 8.96255C15.7256 8.96255 15.9123 9.03811 16.0623 9.18924C16.2123 9.33999 16.2873 9.52692 16.2873 9.75005V30.675L7.2873 28.2563L17.0186 37.9313C17.3561 38.2688 17.7511 38.5313 18.2037 38.7188C18.656 38.9063 19.1234 39.0001 19.6061 39.0001H27.5373C29.2248 39.0001 30.6404 38.4282 31.7842 37.2844C32.9279 36.1407 33.4998 34.725 33.4998 33.0375V24.0375C33.4998 23.8144 33.5756 23.6273 33.7271 23.4762C33.8782 23.3254 34.0657 23.25 34.2896 23.25C34.5131 23.25 34.6998 23.3254 34.8498 23.4762C34.9998 23.6273 35.0748 23.8144 35.0748 24.0375V33.0375C35.0748 35.1375 34.3436 36.9188 32.8811 38.3813C31.4186 39.8438 29.6411 40.575 27.5486 40.575H19.6061ZM20.9561 26.2875V17.2875C20.9561 17.0625 21.0318 16.875 21.1833 16.725C21.3344 16.575 21.5219 16.5 21.7458 16.5C21.9693 16.5 22.1561 16.5756 22.3061 16.7267C22.4561 16.8775 22.5311 17.0644 22.5311 17.2875V26.2875H20.9561ZM27.2561 26.2875V19.5375C27.2561 19.3125 27.3318 19.125 27.4833 18.975C27.6344 18.825 27.8219 18.75 28.0458 18.75C28.2693 18.75 28.4561 18.8256 28.6061 18.9767C28.7561 19.1275 28.8311 19.3144 28.8311 19.5375V26.2875H27.2561ZM39.5748 10.875H30.1248V9.30005H37.7748C35.1873 7.23755 32.4029 5.5313 29.4217 4.1813C26.4404 2.8313 23.2998 2.1563 19.9998 2.1563C16.6998 2.1563 13.5592 2.8313 10.5779 4.1813C7.59668 5.5313 4.8123 7.23755 2.2248 9.30005H9.87481V10.875H0.424805V1.42505H1.9998V7.38755C4.6623 5.40005 7.50293 3.7688 10.5217 2.4938C13.5404 1.2188 16.6998 0.581299 19.9998 0.581299C23.2998 0.581299 26.4592 1.2188 29.4779 2.4938C32.4967 3.7688 35.3373 5.40005 37.9998 7.38755V1.42505H39.5748V10.875Z" fill="#56584F"/>
</g>
<g clip-path="url(#clip1_2170_231)">
<path d="M58.682 18.4034L57.1422 18.6761C57.0778 18.4791 56.9756 18.2916 56.8354 18.1136C56.699 17.9356 56.5134 17.7897 56.2786 17.6761C56.0437 17.5625 55.7502 17.5057 55.3979 17.5057C54.9169 17.5057 54.5153 17.6136 54.1934 17.8295C53.8714 18.0416 53.7104 18.3163 53.7104 18.6534C53.7104 18.9451 53.8184 19.1799 54.0343 19.3579C54.2502 19.536 54.5987 19.6818 55.0797 19.7954L56.4661 20.1136C57.2691 20.2992 57.8676 20.5852 58.2615 20.9716C58.6555 21.358 58.8525 21.8598 58.8525 22.4773C58.8525 23 58.7009 23.4659 58.3979 23.875C58.0987 24.2803 57.6801 24.5985 57.1422 24.8295C56.6081 25.0606 55.9888 25.1761 55.2843 25.1761C54.307 25.1761 53.5097 24.9678 52.8922 24.5511C52.2748 24.1307 51.896 23.5341 51.7559 22.7614L53.3979 22.5114C53.5002 22.9394 53.7104 23.2633 54.0286 23.483C54.3468 23.6989 54.7615 23.8068 55.2729 23.8068C55.8297 23.8068 56.2748 23.6913 56.6081 23.4602C56.9415 23.2254 57.1081 22.9394 57.1081 22.6023C57.1081 22.3295 57.0059 22.1004 56.8013 21.9148C56.6006 21.7292 56.2919 21.589 55.8752 21.4943L54.3979 21.1705C53.5835 20.9848 52.9812 20.6894 52.5911 20.2841C52.2047 19.8788 52.0115 19.3655 52.0115 18.7443C52.0115 18.2291 52.1555 17.7784 52.4434 17.392C52.7312 17.0057 53.129 16.7045 53.6365 16.4886C54.1441 16.2689 54.7256 16.1591 55.3809 16.1591C56.324 16.1591 57.0665 16.3636 57.6081 16.7727C58.1498 17.178 58.5078 17.7216 58.682 18.4034ZM62.6124 25L60.0442 16.2727H61.7999L63.5101 22.6818H63.5954L65.3113 16.2727H67.067L68.7715 22.6534H68.8567L70.5556 16.2727H72.3113L69.7488 25H68.0158L66.2431 18.6988H66.1124L64.3397 25H62.6124ZM73.9235 25V16.2727H75.6224V25H73.9235ZM74.7814 14.9261C74.486 14.9261 74.2322 14.8276 74.0201 14.6307C73.8118 14.4299 73.7076 14.1913 73.7076 13.9147C73.7076 13.6344 73.8118 13.3958 74.0201 13.1988C74.2322 12.9981 74.486 12.8977 74.7814 12.8977C75.0769 12.8977 75.3288 12.9981 75.5371 13.1988C75.7493 13.3958 75.8553 13.6344 75.8553 13.9147C75.8553 14.1913 75.7493 14.4299 75.5371 14.6307C75.3288 14.8276 75.0769 14.9261 74.7814 14.9261ZM77.9079 28.2727V16.2727H79.567V17.6875H79.709C79.8075 17.5057 79.9495 17.2954 80.1351 17.0568C80.3207 16.8182 80.5783 16.6098 80.9079 16.4318C81.2374 16.25 81.673 16.1591 82.2147 16.1591C82.9192 16.1591 83.548 16.3371 84.1011 16.6932C84.6541 17.0492 85.0878 17.5625 85.4022 18.2329C85.7204 18.9034 85.8795 19.7102 85.8795 20.6534C85.8795 21.5966 85.7223 22.4053 85.4079 23.0795C85.0935 23.75 84.6617 24.267 84.1124 24.6307C83.5632 24.9905 82.9363 25.1705 82.2317 25.1705C81.7014 25.1705 81.2677 25.0814 80.9306 24.9034C80.5973 24.7254 80.3359 24.517 80.1465 24.2784C79.9571 24.0398 79.8113 23.8277 79.709 23.642H79.6067V28.2727H77.9079ZM79.5726 20.6363C79.5726 21.25 79.6617 21.7879 79.8397 22.25C80.0177 22.7121 80.2753 23.0739 80.6124 23.3352C80.9495 23.5928 81.3624 23.7216 81.8511 23.7216C82.3586 23.7216 82.7829 23.5871 83.1238 23.3182C83.4647 23.0455 83.7223 22.6761 83.8965 22.2102C84.0745 21.7443 84.1636 21.2197 84.1636 20.6363C84.1636 20.0606 84.0764 19.5435 83.9022 19.0852C83.7317 18.6269 83.4742 18.2651 83.1295 18C82.7886 17.7348 82.3624 17.6023 81.8511 17.6023C81.3586 17.6023 80.942 17.7292 80.6011 17.9829C80.2639 18.2367 80.0082 18.5909 79.834 19.0454C79.6598 19.5 79.5726 20.0303 79.5726 20.6363ZM91.5442 25.1761C90.6844 25.1761 89.9439 24.9924 89.3226 24.625C88.7052 24.2538 88.2279 23.733 87.8908 23.0625C87.5575 22.3883 87.3908 21.5985 87.3908 20.6932C87.3908 19.7992 87.5575 19.0113 87.8908 18.3295C88.2279 17.6477 88.6976 17.1155 89.2999 16.7329C89.906 16.3504 90.6143 16.1591 91.4249 16.1591C91.9173 16.1591 92.3946 16.2405 92.8567 16.4034C93.3189 16.5663 93.7336 16.822 94.1011 17.1704C94.4685 17.5189 94.7582 17.9716 94.9704 18.5284C95.1825 19.0814 95.2886 19.7538 95.2886 20.5454V21.1477H88.3511V19.875H93.6238C93.6238 19.428 93.5329 19.0322 93.3511 18.6875C93.1692 18.339 92.9136 18.0644 92.584 17.8636C92.2582 17.6629 91.8757 17.5625 91.4363 17.5625C90.959 17.5625 90.5423 17.6799 90.1863 17.9148C89.834 18.1458 89.5613 18.4488 89.3681 18.8238C89.1787 19.1951 89.084 19.5985 89.084 20.0341V21.0284C89.084 21.6117 89.1863 22.108 89.3908 22.517C89.5992 22.9261 89.8889 23.2386 90.2601 23.4545C90.6314 23.6667 91.0651 23.7727 91.5613 23.7727C91.8832 23.7727 92.1768 23.7273 92.442 23.6364C92.7071 23.5417 92.9363 23.4015 93.1295 23.2159C93.3226 23.0303 93.4704 22.8011 93.5726 22.5284L95.1806 22.8182C95.0518 23.2917 94.8207 23.7064 94.4874 24.0625C94.1579 24.4148 93.7431 24.6894 93.2431 24.8864C92.7469 25.0795 92.1806 25.1761 91.5442 25.1761Z" fill="#56584F"/>
</g>
<defs>
<clipPath id="clip0_2170_231">
<rect width="40" height="41" fill="white"/>
</clipPath>
<clipPath id="clip1_2170_231">
<rect width="45" height="17" fill="white" transform="translate(51 12)"/>
</clipPath>
</defs>
</svg>
