<svg width="68" height="68" viewBox="0 0 68 68" fill="none" xmlns="http://www.w3.org/2000/svg">
<path fill-rule="evenodd" clip-rule="evenodd" d="M33.9134 68C44.0138 68 53.0883 63.618 59.3302 56.656C56.4266 54.139 52.0508 53.9861 48.9598 56.4739L48.3692 56.9493C42.7096 61.5045 34.4626 60.8318 29.6201 55.4199C26.9789 52.4683 22.4556 52.1669 19.4444 54.7418L12.6358 60.5641C18.4673 65.2174 25.8646 68 33.9134 68ZM44.9653 51.5362C50.356 47.1973 57.9332 47.353 63.1179 51.5434C66.217 46.4217 68 40.4185 68 34.0001C68 26.8679 65.7985 20.2488 62.0363 14.7819C59.6109 14.2667 56.9821 14.8684 54.9866 16.6323L54.4185 17.1343C48.9756 21.9453 40.7064 21.6529 35.6186 16.4697C32.8438 13.6428 28.3113 13.5499 25.4224 16.2609L17.4992 23.696L13.1405 19.0749L21.0637 11.6397C26.4753 6.56141 34.9658 6.73531 40.1638 12.0309C42.8798 14.7979 47.2942 14.9539 50.1998 12.3856L50.7678 11.8836C52.5316 10.3246 54.5721 9.27365 56.7088 8.72089C50.6696 3.2994 42.6778 0 33.9134 0C16.6097 0 2.31739 12.8607 0.119706 29.522C5.37554 27.0062 11.8586 27.9743 16.1439 32.3516C18.8493 35.115 23.2055 35.4066 26.2568 33.0288L30.6868 29.5766C36.2545 25.2381 44.1247 25.4481 49.4517 30.0773L58.0766 37.5726L53.8981 42.3564L45.2733 34.8614C42.2443 32.2289 37.7689 32.1094 34.603 34.5764L30.173 38.0287C24.5667 42.3973 16.5634 41.8615 11.5929 36.7845C8.70261 33.8321 3.97546 33.7291 0.958658 36.5528L0 37.45C0.717433 44.5512 3.62566 51.0078 8.04031 56.1367L15.3042 49.925C20.945 45.1012 29.4183 45.6657 34.3659 51.195C36.951 54.0842 41.3534 54.4431 44.3746 52.0114L44.9653 51.5362Z" fill="black"/>
</svg>
