<svg width="88" height="88" viewBox="0 0 88 88" fill="none" xmlns="http://www.w3.org/2000/svg">
<path d="M86.0481 41.845C87.0151 43.9725 87.6288 46.2468 87.8798 48.5669C88.1216 50.887 88.0007 53.2346 87.4986 55.518C87.0058 57.8015 86.1504 59.9932 84.9602 62.0107C84.1792 63.3587 83.2587 64.6243 82.1987 65.7889C81.148 66.9444 79.9764 67.9898 78.7026 68.9068C77.4195 69.8239 76.0527 70.5942 74.6022 71.227C73.161 71.8505 71.6547 72.3274 70.1112 72.6392C69.386 74.8584 68.3074 76.9585 66.9127 78.8476C65.5273 80.7367 63.8443 82.3965 61.9289 83.7629C60.0135 85.1385 57.8935 86.2022 55.6434 86.9175C53.3933 87.642 51.0409 87.9996 48.6699 87.9996C47.0985 88.0088 45.5178 87.8437 43.9743 87.5319C42.4402 87.211 40.9339 86.7249 39.4927 86.0922C38.0515 85.4594 36.6847 84.6708 35.4108 83.7537C34.1463 82.8367 32.9747 81.7821 31.9333 80.6175C29.6088 81.1127 27.2285 81.2319 24.8761 80.9934C22.5237 80.7458 20.2178 80.1406 18.0513 79.1869C15.8942 78.2423 13.8951 76.9585 12.1378 75.3903C10.3804 73.8222 8.88344 71.9881 7.70259 69.9706C6.91225 68.6226 6.26139 67.2011 5.76859 65.7247C5.27579 64.2483 4.95036 62.726 4.783 61.1762C4.61563 59.6356 4.62493 58.0766 4.79229 56.5268C4.95966 54.9862 5.30369 53.4639 5.79648 51.9874C4.21581 50.2542 2.91408 48.2826 1.94709 46.1551C0.989385 44.0184 0.366415 41.7533 0.124665 39.4331C-0.126383 37.113 0.00379021 34.7654 0.496588 32.482C0.989385 30.1985 1.84481 28.0068 3.03496 25.9893C3.816 24.6413 4.73651 23.3666 5.78719 22.2111C6.83787 21.0556 8.01872 20.0102 9.29256 19.0932C10.5664 18.1761 11.9425 17.3966 13.3837 16.7731C14.8342 16.1403 16.3405 15.6726 17.884 15.3608C18.6092 13.1324 19.6878 11.0416 21.0732 9.15245C22.4679 7.26335 24.1509 5.6035 26.0663 4.22794C27.9817 2.86155 30.1016 1.79778 32.3518 1.07332C34.6019 0.358028 36.9543 -0.00878831 39.3253 0.0003821C40.8967 -0.00878831 42.4774 0.147109 44.0208 0.468073C45.5643 0.789037 47.0706 1.2659 48.5118 1.89866C49.953 2.54059 51.3198 3.32007 52.5936 4.23711C53.8675 5.16332 55.039 6.20875 56.0804 7.37339C58.3956 6.88736 60.7759 6.76814 63.1284 7.00658C65.4808 7.24501 67.7774 7.85942 69.9438 8.80398C72.101 9.7577 74.1001 11.0324 75.8574 12.6005C77.6147 14.1595 79.1117 15.9844 80.2926 18.0111C81.0829 19.3499 81.7338 20.7714 82.2266 22.257C82.7194 23.7334 83.0541 25.2557 83.2122 26.8055C83.3795 28.3553 83.3795 29.9143 83.2029 31.4641C83.0355 33.0139 82.6915 34.5361 82.1987 36.0126C83.7887 37.7458 85.0811 39.7083 86.0481 41.845ZM55.0669 80.9934C57.0939 80.1681 58.9349 78.9484 60.4877 77.417C62.0405 75.8855 63.2771 74.0698 64.114 72.0615C64.9508 70.0623 65.3878 67.9164 65.3878 65.7522V45.3022C65.3816 45.2839 65.3754 45.2625 65.3692 45.238C65.363 45.2197 65.3537 45.2013 65.3413 45.183C65.3289 45.1647 65.3134 45.1494 65.2948 45.1371C65.2762 45.1188 65.2576 45.1066 65.239 45.1005L57.7355 40.8271V65.5321C57.7355 65.7797 57.6983 66.0365 57.6332 66.2749C57.5681 66.5225 57.4751 66.7518 57.345 66.9719C57.2148 67.192 57.066 67.3937 56.8801 67.568C56.6993 67.7457 56.4962 67.8998 56.2757 68.0265L38.5071 78.1414C38.3583 78.2331 38.1073 78.3615 37.9771 78.4349C38.7116 79.0493 39.5113 79.5904 40.3481 80.0672C41.1942 80.5441 42.0682 80.9476 42.9794 81.2777C43.8907 81.5987 44.8298 81.8463 45.7782 82.0114C46.7359 82.1764 47.7029 82.259 48.6699 82.259C50.8642 82.259 53.04 81.828 55.0669 80.9934ZM12.7514 67.1094C13.8579 68.9894 15.3177 70.6217 17.0564 71.9422C18.8045 73.2628 20.785 74.2257 22.9049 74.7851C25.0249 75.3445 27.2378 75.4912 29.4136 75.2069C31.5893 74.9226 33.6814 74.2257 35.5875 73.1436L53.5513 62.9186L53.5978 62.8727C53.6102 62.8605 53.6195 62.8421 53.6257 62.8177C53.6381 62.7993 53.6474 62.781 53.6536 62.7627V54.1425L31.9705 66.5134C31.7474 66.6417 31.5149 66.7335 31.2732 66.8068C31.0221 66.871 30.7711 66.8985 30.5107 66.8985C30.2597 66.8985 30.0086 66.871 29.7576 66.8068C29.5159 66.7335 29.2741 66.6417 29.0509 66.5134L11.2823 56.3892C11.1243 56.2975 10.8918 56.16 10.7617 56.0774C10.5943 57.022 10.5106 57.9757 10.5106 58.9294C10.5106 59.8832 10.6036 60.8369 10.7709 61.7814C10.9383 62.7168 11.1987 63.643 11.5241 64.5417C11.8588 65.4404 12.2679 66.3024 12.7514 67.1278V67.1094ZM8.08381 28.8688C6.98664 30.7488 6.27998 32.8213 5.99174 34.9672C5.7035 37.113 5.85227 39.2864 6.41946 41.3864C6.98664 43.4773 7.96293 45.4306 9.30186 47.1546C10.6408 48.8695 12.3051 50.3093 14.2019 51.3914L32.1565 61.6255C32.1751 61.6316 32.1968 61.6378 32.2216 61.6439H32.2867C32.3115 61.6439 32.3332 61.6378 32.3518 61.6255C32.3704 61.6194 32.389 61.6103 32.4075 61.598L39.939 57.3063L18.2559 44.9629C18.042 44.8345 17.8375 44.6786 17.6515 44.5044C17.4713 44.3261 17.3151 44.1258 17.1866 43.9083C17.0657 43.6882 16.9635 43.459 16.8984 43.2114C16.8333 42.9729 16.7961 42.7253 16.8054 42.4686V21.6425C15.8942 21.9727 15.0109 22.3762 14.174 22.853C13.3372 23.3391 12.5469 23.8893 11.803 24.5037C11.0685 25.1181 10.3804 25.7967 9.75746 26.5304C9.13449 27.2548 8.5859 28.0435 8.1024 28.8688H8.08381ZM69.7579 43.0279C69.981 43.1563 70.1856 43.3031 70.3715 43.4865C70.5482 43.6607 70.7063 43.8625 70.8365 44.0825C70.9573 44.3026 71.0596 44.5411 71.1247 44.7795C71.1805 45.0271 71.2177 45.2747 71.2084 45.5315V66.3575C74.1931 65.2754 76.7965 63.3771 78.7212 60.8827C80.6552 58.3884 81.8175 55.408 82.0871 52.2901C82.3568 49.1721 81.7245 46.0358 80.2554 43.2572C78.7863 40.4786 76.5455 38.1676 73.7932 36.6087L55.8387 26.3745C55.8201 26.3684 55.7984 26.3623 55.7736 26.3561H55.7085C55.6899 26.3623 55.6682 26.3684 55.6434 26.3745C55.6248 26.3806 55.6062 26.3898 55.5876 26.402L48.0934 30.6754L69.7765 43.0279H69.7579ZM77.2428 31.9318H77.2335V31.9409L77.2428 31.9318ZM77.2335 31.9226C77.7728 28.8413 77.4102 25.6684 76.1828 22.7797C74.9648 19.891 72.9285 17.4058 70.3251 15.6084C67.7216 13.8202 64.6532 12.7931 61.4826 12.6555C58.3027 12.5272 55.1599 13.2883 52.4077 14.8473L34.4531 25.0723C34.4345 25.0845 34.419 25.0998 34.4066 25.1181L34.3694 25.1732C34.3632 25.1915 34.357 25.2129 34.3508 25.2374C34.3446 25.2557 34.3415 25.2771 34.3415 25.3015V33.8484L56.0246 21.4958C56.2478 21.3674 56.4895 21.2757 56.7313 21.2024C56.9823 21.1382 57.2334 21.1107 57.4844 21.1107C57.7448 21.1107 57.9958 21.1382 58.2469 21.2024C58.4886 21.2757 58.7211 21.3674 58.9442 21.4958L76.7128 31.62C76.8709 31.7117 77.1033 31.84 77.2335 31.9226ZM30.2504 22.4587C30.2504 22.2111 30.2876 21.9635 30.3527 21.7159C30.4178 21.4775 30.5107 21.2391 30.6409 21.019C30.7711 20.808 30.9199 20.6063 31.1058 20.4229C31.2825 20.2486 31.487 20.0928 31.7102 19.9735L49.4788 9.85857C49.6462 9.7577 49.8786 9.62931 50.0088 9.56512C47.5727 7.5568 44.5973 6.27294 41.4453 5.87861C38.2932 5.47512 35.0947 5.97032 32.2216 7.30003C29.3392 8.62974 26.9031 10.7481 25.2015 13.3892C23.5 16.0394 22.5981 19.1023 22.5981 22.2386V42.6886C22.6043 42.7131 22.6105 42.7345 22.6167 42.7528C22.6229 42.7712 22.6322 42.7895 22.6446 42.8079C22.657 42.8262 22.6725 42.8445 22.6911 42.8629C22.7035 42.8751 22.7221 42.8873 22.7469 42.8996L30.2504 47.173V22.4587ZM34.323 49.4839L43.9836 54.9862L53.6443 49.4839V38.4886L43.9929 32.9863L34.3322 38.4886L34.323 49.4839Z" fill="black"/>
</svg>
