<svg width="45" height="45" viewBox="0 0 45 45" fill="none" xmlns="http://www.w3.org/2000/svg">
<g clip-path="url(#clip0_2022_139)">
<path fill-rule="evenodd" clip-rule="evenodd" d="M28.2971 12.9388C26.4762 11.7221 24.3354 11.0727 22.1454 11.0727V0C26.5254 0 30.8069 1.29881 34.4488 3.73218C38.0906 6.16554 40.929 9.62419 42.6051 13.6707C44.2812 17.7172 44.7198 22.17 43.8653 26.4658C43.0109 30.7616 40.9017 34.7075 37.8046 37.8046C34.7075 40.9017 30.7616 43.0109 26.4658 43.8653C22.17 44.7198 17.7172 44.2812 13.6707 42.6051C9.62419 40.929 6.16554 38.0906 3.73218 34.4488C1.29881 30.8069 0 26.5254 0 22.1454H11.0727C11.0727 24.3354 11.7221 26.4762 12.9388 28.2971C14.1555 30.118 15.8848 31.5372 17.9081 32.3753C19.9313 33.2134 22.1577 33.4326 24.3056 33.0053C26.4535 32.5781 28.4264 31.5236 29.9751 29.9751C31.5236 28.4264 32.5781 26.4535 33.0053 24.3056C33.4326 22.1577 33.2134 19.9313 32.3753 17.9081C31.5372 15.8848 30.118 14.1555 28.2971 12.9388Z" fill="black"/>
<path fill-rule="evenodd" clip-rule="evenodd" d="M11.0727 4.79587e-06C11.0727 1.4541 10.7863 2.89395 10.2299 4.23734C9.67339 5.58075 8.85779 6.8014 7.82959 7.8296C6.8014 8.8578 5.58075 9.6734 4.23734 10.2299C2.89394 10.7863 1.45409 11.0727 4.83999e-07 11.0727L0 22.1454C2.90818 22.1454 5.78788 21.5726 8.4747 20.4597C11.1615 19.3468 13.6028 17.7156 15.6591 15.6591C17.7156 13.6028 19.3468 11.1615 20.4597 8.47469C21.5726 5.78788 22.1454 2.90818 22.1454 0L11.0727 4.79587e-06Z" fill="black"/>
</g>
<defs>
<clipPath id="clip0_2022_139">
<rect width="44.2909" height="44.2909" fill="white"/>
</clipPath>
</defs>
</svg>
