<svg width="36" height="37" viewBox="0 0 36 37" fill="none" xmlns="http://www.w3.org/2000/svg">
<path fill-rule="evenodd" clip-rule="evenodd" d="M12.2789 0.959717C10.2802 0.959717 8.36336 1.75371 6.95005 3.16702L0.13031 9.98671V13.1083C0.13031 15.3138 1.07764 17.2979 2.58758 18.676C1.07764 20.0542 0.13031 22.0383 0.13031 24.2438V27.3654L6.95005 34.1851C8.36336 35.5984 10.2802 36.3924 12.2789 36.3924C14.4844 36.3924 16.4685 35.4451 17.8467 33.9351C19.2248 35.4451 21.2089 36.3924 23.4144 36.3924C25.4131 36.3924 27.3299 35.5984 28.7433 34.1851L35.563 27.3654V24.2438C35.563 22.0383 34.6157 20.0542 33.1057 18.676C34.6157 17.2979 35.563 15.3138 35.563 13.1083V9.98671L28.7433 3.16702C27.3299 1.75371 25.4131 0.959717 23.4144 0.959717C21.2089 0.959717 19.2248 1.90704 17.8467 3.41698C16.4685 1.90704 14.4844 0.959717 12.2789 0.959717ZM22.9479 18.676C22.8629 18.5985 22.7796 18.5189 22.6979 18.4372L17.8467 13.586L12.9954 18.4372C12.9137 18.5189 12.8304 18.5985 12.7454 18.676C12.8304 18.7536 12.9137 18.8332 12.9954 18.9149L17.8467 23.7661L22.6979 18.9149C22.7796 18.8332 22.8629 18.7536 22.9479 18.676ZM19.8151 27.3654V28.8562C19.8151 30.844 21.4266 32.4555 23.4144 32.4555C24.3689 32.4555 25.2844 32.0762 25.9594 31.4013L31.6261 25.7346V24.2438C31.6261 22.256 30.0146 20.6445 28.0268 20.6445C27.0723 20.6445 26.1568 21.0237 25.4818 21.6987L19.8151 27.3654ZM15.8782 27.3654L10.2115 21.6987C9.53654 21.0237 8.62108 20.6445 7.66651 20.6445C5.67871 20.6445 4.06727 22.256 4.06727 24.2438V25.7346L9.7339 31.4013C10.4089 32.0762 11.3244 32.4555 12.2789 32.4555C14.2667 32.4555 15.8782 30.844 15.8782 28.8562V27.3654ZM15.8782 8.49591V9.98671L10.2115 15.6534C9.53654 16.3284 8.62108 16.7076 7.66651 16.7076C5.67871 16.7076 4.06727 15.0961 4.06727 13.1083V11.6175L9.7339 5.95087C10.4089 5.27589 11.3244 4.89668 12.2789 4.89668C14.2667 4.89668 15.8782 6.50811 15.8782 8.49591ZM25.4818 15.6534L19.8151 9.98671V8.49591C19.8151 6.50811 21.4266 4.89668 23.4144 4.89668C24.3689 4.89668 25.2844 5.27589 25.9594 5.95087L31.6261 11.6175V13.1083C31.6261 15.0961 30.0146 16.7076 28.0268 16.7076C27.0723 16.7076 26.1568 16.3284 25.4818 15.6534Z" fill="black"/>
</svg>
