<svg width="54" height="43" viewBox="0 0 54 43" fill="none" xmlns="http://www.w3.org/2000/svg">
<path d="M8.77328 32.2989C9.09912 31.973 9.54716 31.783 10.0223 31.783H53.1148C53.9022 31.783 54.296 32.7333 53.7393 33.29L45.2267 41.8026C44.9009 42.1284 44.4528 42.3185 43.9777 42.3185H0.885222C0.0977737 42.3185 -0.295951 41.3681 0.260694 40.8115L8.77328 32.2989Z" fill="black"/>
<path d="M8.77328 0.515915C9.1127 0.190074 9.56073 0 10.0223 0H53.1148C53.9022 0 54.296 0.950369 53.7393 1.50701L45.2267 10.0196C44.9009 10.3454 44.4528 10.5355 43.9777 10.5355H0.885222C0.0977737 10.5355 -0.295951 9.58515 0.260694 9.0285L8.77328 0.515915Z" fill="black"/>
<path d="M45.2267 16.3055C44.9009 15.9796 44.4528 15.7896 43.9777 15.7896H0.885222C0.0977737 15.7896 -0.295951 16.7399 0.260694 17.2966L8.77328 25.8092C9.09912 26.135 9.54716 26.3251 10.0223 26.3251H53.1148C53.9022 26.3251 54.296 25.3747 53.7393 24.8181L45.2267 16.3055Z" fill="black"/>
</svg>
