<svg width="61" height="25" viewBox="0 0 61 25" fill="none" xmlns="http://www.w3.org/2000/svg">
<path d="M14.5306 0C12.14 0 9.8473 0.98256 8.15689 2.73153L2.64008 8.43943C0.949665 10.1884 0 12.5605 0 15.0339C0 20.1846 4.03563 24.36 9.01383 24.36C11.4045 24.36 13.6971 23.3774 15.3875 21.6284L19.2035 17.6802C19.2036 17.6803 19.2035 17.6801 19.2035 17.6802L30.3221 6.17655C31.1294 5.34126 32.2244 4.87199 33.3662 4.87199C35.2776 4.87199 36.8982 6.16097 37.4601 7.94466L40.969 4.31412C39.3683 1.72009 36.5614 0 33.3662 0C30.9755 0 28.6828 0.98256 26.9924 2.73153L12.0579 18.1834C11.2506 19.0187 10.1556 19.488 9.01383 19.488C6.63627 19.488 4.70889 17.4939 4.70889 15.0339C4.70889 13.8526 5.16244 12.7197 5.96977 11.8844L11.4865 6.17655C12.2939 5.34126 13.3889 4.87199 14.5306 4.87199C16.4422 4.87199 18.0627 6.16103 18.6245 7.94477L22.1336 4.31421C20.5328 1.72014 17.7259 0 14.5306 0Z" fill="black"/>
<path d="M30.5776 18.1834C29.7703 19.0187 28.6753 19.488 27.5335 19.488C25.6223 19.488 24.0018 18.1993 23.4398 16.4159L19.9309 20.0464C21.5318 22.6401 24.3385 24.36 27.5335 24.36C29.9242 24.36 32.2169 23.3774 33.9073 21.6284L48.842 6.17655C49.6493 5.34126 50.7443 4.87199 51.8861 4.87199C54.2637 4.87199 56.191 6.86613 56.191 9.32605C56.191 10.5073 55.7375 11.6403 54.9301 12.4756L49.4133 18.1834C48.606 19.0187 47.511 19.488 46.3692 19.488C44.4578 19.488 42.8373 18.1991 42.2754 16.4155L38.7664 20.0461C40.3672 22.64 43.1741 24.36 46.3692 24.36C48.7599 24.36 51.0526 23.3774 52.743 21.6284L58.2598 15.9205C59.9502 14.1716 60.9 11.7995 60.9 9.32605C60.9 4.17541 56.8643 0 51.8861 0C49.4954 0 47.2027 0.98256 45.5123 2.73153L30.5776 18.1834Z" fill="black"/>
</svg>
