<svg width="58" height="50" viewBox="0 0 58 50" fill="none" xmlns="http://www.w3.org/2000/svg">
<path d="M47.7718 31.2459L29.4085 0.512231C29.3141 0.372532 29.1725 0.232832 29.0309 0.1397C28.8892 0.0465676 28.7004 0 28.5116 0C28.3228 0 28.1339 0.0465676 27.9923 0.1397C27.8507 0.232832 27.7091 0.372532 27.6147 0.512231L22.1387 9.73234C21.9499 10.0117 21.8555 10.3843 21.8555 10.7102C21.8555 11.0362 21.9499 11.4087 22.1387 11.6881L34.1292 31.7581C34.318 32.0375 34.554 32.3169 34.8845 32.5032C35.2149 32.6895 35.5453 32.7826 35.923 32.7826H46.8749C47.0637 32.7826 47.2526 32.736 47.3942 32.6429C47.5358 32.5498 47.6774 32.4101 47.7718 32.2704C47.8662 32.1307 47.9134 31.9444 47.9134 31.7581C47.9134 31.5719 47.8662 31.4322 47.7718 31.2459Z" fill="black"/>
<path d="M0.188485 48.0183L18.5186 16.4965C18.6128 16.3533 18.7542 16.21 18.8956 16.1145C19.0369 16.0189 19.2254 15.9712 19.4139 15.9712C19.6024 15.9712 19.7909 16.0189 19.9322 16.1145C20.0736 16.21 20.215 16.3533 20.3092 16.4965L25.7752 25.9531C25.9637 26.2396 26.058 26.6217 26.058 26.956C26.058 27.2904 25.9637 27.6724 25.7752 27.959L13.8065 48.5436C13.618 48.8302 13.3824 49.1168 13.0525 49.3078C12.7227 49.4989 12.3929 49.5944 12.0159 49.5944H1.03667C0.848182 49.5944 0.659695 49.5466 0.518331 49.4511C0.376968 49.3556 0.235607 49.2123 0.141365 49.069C0.0471225 48.9257 0 48.7347 0 48.5436C0.0471211 48.3526 0.0942429 48.2093 0.188485 48.0183Z" fill="black"/>
<path d="M20.323 49.594H56.9645C57.1529 49.594 57.3413 49.5442 57.4826 49.4445C57.6239 49.3449 57.7652 49.1954 57.8594 49.0458C57.9536 48.8963 58.0007 48.697 58.0007 48.4976C58.0007 48.2983 57.9536 48.1488 57.8594 47.9494L52.3961 38.0818C52.2077 37.7827 51.9722 37.4837 51.6426 37.2844C51.3129 37.085 50.9832 36.9854 50.6064 36.9854H26.7282C26.3514 36.9854 26.0218 37.085 25.6921 37.2844C25.3624 37.4837 25.1269 37.7329 24.9385 38.0818L19.4753 47.9494C19.3811 48.099 19.334 48.2983 19.334 48.4976C19.334 48.697 19.3811 48.8465 19.4753 49.0458C19.5695 49.1954 19.7108 49.3449 19.8521 49.4445C19.9933 49.5442 20.1817 49.594 20.323 49.594Z" fill="black"/>
</svg>
