<svg width="934" height="372" viewBox="0 0 934 372" fill="none" xmlns="http://www.w3.org/2000/svg">
<path d="M44.2459 216.857C44.2459 218.574 43.9744 220.037 43.4313 221.245C42.8706 222.437 42.1085 223.348 41.145 223.979C40.1639 224.592 39.0426 224.898 37.7812 224.898L37.7812 222.139C38.92 222.139 39.8485 221.666 40.5668 220.72C41.2676 219.774 41.618 218.46 41.618 216.778C41.618 215.464 41.3815 214.439 40.9084 213.703C40.4354 212.95 39.7259 212.573 38.7798 212.573C38.2017 212.573 37.7286 212.713 37.3607 212.994C36.9928 213.257 36.695 213.695 36.4672 214.308C36.222 214.921 36.0117 215.771 35.8365 216.857C35.5387 218.731 35.1795 220.194 34.7591 221.245C34.3386 222.297 33.7955 223.05 33.1297 223.506C32.464 223.944 31.6055 224.163 30.5544 224.163C28.89 224.163 27.576 223.541 26.6125 222.297C25.6489 221.035 25.1671 219.31 25.1671 217.12C25.1671 215.648 25.4211 214.36 25.9292 213.257C26.4373 212.153 27.138 211.312 28.0315 210.734C28.925 210.138 29.9324 209.84 31.0537 209.84L31.0537 212.6C29.9675 212.6 29.1528 213.038 28.6097 213.914C28.0666 214.772 27.795 215.876 27.795 217.225C27.795 218.486 28.014 219.476 28.452 220.194C28.89 220.913 29.5382 221.272 30.3967 221.272C30.9573 221.272 31.4128 221.132 31.7632 220.851C32.0961 220.553 32.3764 220.072 32.6042 219.406C32.8144 218.723 32.9983 217.75 33.156 216.489C33.4539 214.089 34.0408 212.354 34.9167 211.286C35.7927 210.217 37.0454 209.683 38.6747 209.683C40.4091 209.683 41.7757 210.331 42.7743 211.627C43.7554 212.924 44.2459 214.667 44.2459 216.857ZM33.1297 199.829L33.1297 203.246L40.2777 203.246C40.7683 203.246 41.1012 203.158 41.2764 202.983C41.4516 202.808 41.5391 202.475 41.5391 201.984L41.5391 199.829L43.9043 199.829L43.9043 202.378C43.9043 203.657 43.6415 204.56 43.1159 205.085C42.5903 205.611 41.6881 205.873 40.4091 205.873L33.1297 205.873L33.1297 208.633L30.7646 208.633L30.7646 205.873L26.5599 205.873L26.5599 203.246L30.7646 203.246L30.7646 199.829L33.1297 199.829ZM44.2459 192.156C44.2459 193.417 43.9569 194.538 43.3787 195.519C42.783 196.5 41.9596 197.271 40.9084 197.832C39.8573 198.375 38.6659 198.647 37.3344 198.647C36.0205 198.647 34.8379 198.375 33.7867 197.832C32.7356 197.271 31.9121 196.5 31.3165 195.519C30.7208 194.538 30.423 193.417 30.423 192.156C30.423 191.21 30.6157 190.316 31.0011 189.475C31.3865 188.617 31.9822 187.96 32.7881 187.504L32.7881 187.32L30.7646 187.32L30.7646 184.692L43.9043 184.692L43.9043 187.32L41.8808 187.32L41.8808 187.504C42.6867 187.96 43.2823 188.608 43.6678 189.449C44.0532 190.29 44.2459 191.192 44.2459 192.156ZM41.7494 191.604C41.7494 190.307 41.3552 189.274 40.5668 188.503C39.7609 187.714 38.6835 187.32 37.3344 187.32C35.9854 187.32 34.9167 187.714 34.1284 188.503C33.3225 189.274 32.9195 190.307 32.9195 191.604C32.9195 192.9 33.3225 193.943 34.1284 194.731C34.9167 195.502 35.9854 195.887 37.3344 195.887C38.6835 195.887 39.7609 195.502 40.5668 194.731C41.3552 193.943 41.7494 192.9 41.7494 191.604ZM43.9043 179.098L43.9043 181.726L25.5087 181.726L25.5087 179.098L36.073 179.098L36.073 176.602L30.7646 172.949L30.7646 170.032L37.1242 174.473L43.9043 169.743L43.9043 172.818L38.4382 176.602L38.4382 179.098L43.9043 179.098ZM43.9043 165.665L43.9043 168.293L30.7646 168.293L30.7646 165.665L43.9043 165.665ZM28.4257 165.612L28.4257 168.345L25.6927 168.345L25.6927 165.612L28.4257 165.612ZM43.9043 162.762L30.7646 162.762L30.7646 160.134L32.4728 160.134L32.4728 159.95C31.7895 159.565 31.2814 159.03 30.9486 158.347C30.5982 157.646 30.423 156.867 30.423 156.008C30.423 154.501 30.896 153.319 31.8421 152.46C32.7706 151.602 34.067 151.173 35.7314 151.173L43.9043 151.173L43.9043 153.801L36.2044 153.801C35.1533 153.801 34.3474 154.081 33.7867 154.642C33.2086 155.185 32.9195 155.956 32.9195 156.954C32.9195 157.97 33.2086 158.759 33.7867 159.319C34.3649 159.862 35.1708 160.134 36.2044 160.134L43.9043 160.134L43.9043 162.762ZM49.423 142.227C49.423 143.453 49.2303 144.54 48.8448 145.486C48.4769 146.414 47.9601 147.141 47.2943 147.667C46.6286 148.192 45.8752 148.464 45.0343 148.482L45.0343 145.722C45.6475 145.635 46.1205 145.293 46.4534 144.697C46.8038 144.084 46.979 143.234 46.979 142.148C46.979 140.747 46.6636 139.748 46.0329 139.152C45.4022 138.539 44.351 138.233 42.8794 138.233L41.5129 138.233L41.5129 138.417C42.3363 138.89 42.9407 139.529 43.3261 140.335C43.6941 141.123 43.878 141.973 43.878 142.884C43.878 144.075 43.5889 145.153 43.0108 146.116C42.4326 147.08 41.6355 147.833 40.6194 148.376C39.5857 148.92 38.4294 149.191 37.1505 149.191C35.8716 149.191 34.724 148.928 33.7079 148.403C32.6742 147.86 31.8683 147.106 31.2902 146.143C30.712 145.179 30.423 144.093 30.423 142.884C30.423 141.955 30.6157 141.097 31.0011 140.309C31.3865 139.52 31.9822 138.89 32.7881 138.417L32.7881 138.233L30.7646 138.233L30.7646 135.605L43.0108 135.605C45.0956 135.605 46.6811 136.183 47.7674 137.339C48.8711 138.478 49.423 140.107 49.423 142.227ZM41.3815 142.332C41.3815 141.088 41.0048 140.098 40.2515 139.363C39.4806 138.609 38.4469 138.233 37.1505 138.233C35.8716 138.233 34.8467 138.609 34.0758 139.363C33.3049 140.098 32.9195 141.088 32.9195 142.332C32.9195 143.576 33.3049 144.575 34.0758 145.328C34.8467 146.081 35.8716 146.458 37.1505 146.458C38.4294 146.458 39.4543 146.081 40.2252 145.328C40.996 144.575 41.3815 143.576 41.3815 142.332Z" fill="#E3FD5A"/>
<rect x="0.729983" y="303.38" width="235.07" height="69.39" transform="rotate(-90 0.729983 303.38)" stroke="white" stroke-width="1.45997"/>
<path d="M130.855 288.243L112.46 288.243L112.46 282.278C112.46 280.018 112.854 278.108 113.642 276.549C114.431 274.972 115.517 273.79 116.901 273.001C118.285 272.195 119.871 271.792 121.658 271.792C123.445 271.792 125.03 272.195 126.414 273.001C127.798 273.79 128.885 274.972 129.673 276.549C130.461 278.108 130.855 280.018 130.855 282.278L130.855 288.243ZM128.28 282.278C128.28 279.737 127.684 277.837 126.493 276.575C125.284 275.314 123.672 274.683 121.658 274.683C119.625 274.683 118.014 275.314 116.822 276.575C115.631 277.837 115.035 279.737 115.035 282.278L115.035 285.484L128.28 285.484L128.28 282.278ZM130.855 266.925L130.855 269.553L117.716 269.553L117.716 266.925L130.855 266.925ZM115.377 266.872L115.377 269.606L112.644 269.606L112.644 266.872L115.377 266.872ZM131.197 258.898C131.197 260.106 131.004 261.166 130.619 262.077C130.216 262.971 129.673 263.663 128.99 264.153C128.289 264.644 127.492 264.907 126.598 264.942L126.598 262.314C127.264 262.226 127.798 261.885 128.201 261.289C128.587 260.693 128.779 259.861 128.779 258.792C128.779 256.883 128.228 255.928 127.124 255.928C126.598 255.928 126.204 256.164 125.941 256.637C125.661 257.093 125.451 257.881 125.311 259.003C125.083 260.86 124.654 262.226 124.023 263.102C123.375 263.961 122.49 264.39 121.369 264.39C120.125 264.39 119.152 263.899 118.452 262.918C117.733 261.92 117.374 260.606 117.374 258.976C117.374 257.925 117.567 256.97 117.952 256.112C118.32 255.253 118.837 254.57 119.503 254.062C120.169 253.554 120.922 253.274 121.763 253.221L121.763 255.849C121.15 255.937 120.668 256.261 120.317 256.821C119.967 257.382 119.792 258.17 119.792 259.187C119.792 259.992 119.914 260.606 120.16 261.026C120.405 261.429 120.764 261.631 121.237 261.631C121.745 261.631 122.131 261.377 122.394 260.868C122.656 260.36 122.858 259.484 122.998 258.241C123.191 256.524 123.611 255.253 124.259 254.43C124.908 253.589 125.81 253.169 126.966 253.169C128.298 253.169 129.34 253.694 130.093 254.745C130.829 255.797 131.197 257.181 131.197 258.898ZM131.197 244.77C131.197 246.119 130.908 247.319 130.33 248.371C129.734 249.422 128.911 250.245 127.86 250.841C126.808 251.436 125.617 251.734 124.286 251.734C122.972 251.734 121.789 251.436 120.738 250.841C119.687 250.245 118.863 249.422 118.268 248.371C117.672 247.319 117.374 246.119 117.374 244.77C117.374 243.561 117.611 242.475 118.084 241.512C118.539 240.548 119.187 239.768 120.028 239.173C120.869 238.577 121.824 238.227 122.893 238.122L122.893 240.75C121.964 240.925 121.228 241.38 120.685 242.116C120.142 242.852 119.871 243.745 119.871 244.797C119.871 246.058 120.274 247.074 121.08 247.845C121.885 248.598 122.954 248.975 124.286 248.975C125.617 248.975 126.686 248.598 127.492 247.845C128.298 247.074 128.701 246.058 128.701 244.797C128.701 243.745 128.42 242.852 127.86 242.116C127.299 241.38 126.554 240.925 125.626 240.75L125.626 238.122C126.712 238.209 127.676 238.551 128.517 239.147C129.358 239.725 130.015 240.504 130.488 241.485C130.961 242.466 131.197 243.561 131.197 244.77ZM131.197 230.077C131.197 231.426 130.908 232.635 130.33 233.703C129.734 234.755 128.911 235.578 127.86 236.174C126.808 236.769 125.617 237.067 124.286 237.067C122.954 237.067 121.763 236.769 120.712 236.174C119.66 235.578 118.846 234.755 118.268 233.703C117.672 232.635 117.374 231.426 117.374 230.077C117.374 228.728 117.672 227.528 118.268 226.477C118.846 225.408 119.66 224.576 120.712 223.98C121.763 223.384 122.954 223.087 124.286 223.087C125.617 223.087 126.808 223.384 127.86 223.98C128.911 224.576 129.734 225.408 130.33 226.477C130.908 227.528 131.197 228.728 131.197 230.077ZM128.701 230.077C128.701 228.798 128.298 227.773 127.492 227.002C126.686 226.231 125.617 225.846 124.286 225.846C122.954 225.846 121.885 226.231 121.08 227.002C120.274 227.773 119.871 228.798 119.871 230.077C119.871 231.356 120.274 232.381 121.08 233.152C121.885 233.922 122.954 234.308 124.286 234.308C125.617 234.308 126.686 233.922 127.492 233.152C128.298 232.381 128.701 231.356 128.701 230.077ZM131.197 216.344C131.197 217.833 130.733 219.007 129.804 219.866C128.858 220.707 127.553 221.127 125.889 221.127L117.716 221.127L117.716 218.499L125.416 218.499C126.467 218.499 127.281 218.236 127.86 217.711C128.42 217.168 128.701 216.397 128.701 215.398C128.701 214.4 128.411 213.629 127.833 213.086C127.255 212.542 126.449 212.271 125.416 212.271L117.716 212.271L117.716 209.643L130.855 209.643L130.855 212.271L129.147 212.271L129.147 212.455C129.848 212.84 130.365 213.375 130.698 214.058C131.031 214.741 131.197 215.503 131.197 216.344ZM130.855 206.765L117.716 206.765L117.716 204.137L119.424 204.137L119.424 203.953C118.741 203.567 118.233 203.033 117.9 202.35C117.549 201.649 117.374 200.869 117.374 200.011C117.374 198.504 117.847 197.322 118.793 196.463C119.722 195.605 121.018 195.176 122.683 195.176L130.855 195.176L130.855 197.803L123.156 197.803C122.104 197.803 121.299 198.084 120.738 198.644C120.16 199.188 119.871 199.958 119.871 200.957C119.871 201.973 120.16 202.762 120.738 203.322C121.316 203.865 122.122 204.137 123.156 204.137L130.855 204.137L130.855 206.765ZM120.081 185.047L120.081 188.464L127.229 188.464C127.719 188.464 128.052 188.376 128.228 188.201C128.403 188.026 128.49 187.693 128.49 187.202L128.49 185.047L130.855 185.047L130.855 187.596C130.855 188.875 130.593 189.778 130.067 190.303C129.541 190.829 128.639 191.092 127.36 191.092L120.081 191.092L120.081 193.851L117.716 193.851L117.716 191.092L113.511 191.092L113.511 188.464L117.716 188.464L117.716 185.047L120.081 185.047ZM117.374 177.111C117.374 175.832 117.654 174.684 118.215 173.668C118.776 172.635 119.555 171.829 120.554 171.251C121.535 170.672 122.656 170.383 123.918 170.383C124.286 170.383 124.671 170.41 125.074 170.462L125.074 181.132C126.248 181.009 127.168 180.58 127.833 179.844C128.499 179.108 128.832 178.145 128.832 176.953C128.832 175.972 128.622 175.157 128.201 174.509C127.763 173.861 127.264 173.458 126.703 173.3L126.703 170.672C127.492 170.795 128.228 171.137 128.911 171.697C129.594 172.258 130.146 173.003 130.566 173.931C130.987 174.842 131.197 175.858 131.197 176.98C131.197 178.311 130.908 179.502 130.33 180.554C129.734 181.587 128.911 182.402 127.86 182.997C126.808 183.576 125.608 183.865 124.259 183.865C122.928 183.865 121.745 183.576 120.712 182.997C119.66 182.419 118.846 181.622 118.268 180.606C117.672 179.572 117.374 178.407 117.374 177.111ZM119.739 177.032C119.739 178.083 120.011 178.959 120.554 179.66C121.097 180.343 121.859 180.799 122.84 181.027L122.84 172.932C121.877 173.143 121.123 173.616 120.58 174.352C120.02 175.07 119.739 175.963 119.739 177.032ZM131.197 162.707C131.197 163.968 130.908 165.089 130.33 166.07C129.734 167.051 128.911 167.822 127.86 168.383C126.808 168.926 125.617 169.198 124.286 169.198C122.972 169.198 121.789 168.926 120.738 168.383C119.687 167.822 118.863 167.051 118.268 166.07C117.672 165.089 117.374 163.968 117.374 162.707C117.374 161.76 117.567 160.867 117.952 160.026C118.338 159.168 118.933 158.511 119.739 158.055L119.739 157.871L112.46 157.871L112.46 155.243L130.855 155.243L130.855 157.871L128.832 157.871L128.832 158.055C129.638 158.511 130.234 159.159 130.619 160C131.004 160.841 131.197 161.743 131.197 162.707ZM128.701 162.155C128.701 160.858 128.306 159.825 127.518 159.054C126.712 158.265 125.635 157.871 124.286 157.871C122.937 157.871 121.868 158.265 121.08 159.054C120.274 159.825 119.871 160.858 119.871 162.155C119.871 163.451 120.274 164.494 121.08 165.282C121.868 166.053 122.937 166.438 124.286 166.438C125.635 166.438 126.712 166.053 127.518 165.282C128.306 164.494 128.701 163.451 128.701 162.155ZM131.197 140.789C131.197 142.05 130.908 143.172 130.33 144.153C129.734 145.134 128.911 145.905 127.86 146.465C126.808 147.008 125.617 147.28 124.286 147.28C122.972 147.28 121.789 147.008 120.738 146.465C119.687 145.905 118.863 145.134 118.268 144.153C117.672 143.172 117.374 142.05 117.374 140.789C117.374 139.843 117.567 138.949 117.952 138.108C118.338 137.25 118.933 136.593 119.739 136.137L119.739 135.953L117.716 135.953L117.716 133.326L130.855 133.326L130.855 135.953L128.832 135.953L128.832 136.137C129.638 136.593 130.234 137.241 130.619 138.082C131.004 138.923 131.197 139.825 131.197 140.789ZM128.701 140.237C128.701 138.941 128.306 137.907 127.518 137.136C126.712 136.348 125.635 135.953 124.286 135.953C122.937 135.953 121.868 136.348 121.08 137.136C120.274 137.907 119.871 138.941 119.871 140.237C119.871 141.533 120.274 142.576 121.08 143.364C121.868 144.135 122.937 144.521 124.286 144.521C125.635 144.521 126.712 144.135 127.518 143.364C128.306 142.576 128.701 141.533 128.701 140.237ZM131.197 125.314C131.197 126.523 131.004 127.583 130.619 128.494C130.216 129.387 129.673 130.079 128.99 130.57C128.289 131.06 127.492 131.323 126.598 131.358L126.598 128.73C127.264 128.643 127.798 128.301 128.201 127.705C128.587 127.11 128.779 126.278 128.779 125.209C128.779 123.299 128.228 122.344 127.124 122.344C126.598 122.344 126.204 122.581 125.941 123.054C125.661 123.51 125.451 124.298 125.311 125.419C125.083 127.276 124.654 128.643 124.023 129.519C123.375 130.377 122.49 130.806 121.369 130.806C120.125 130.806 119.152 130.316 118.452 129.335C117.733 128.336 117.374 127.022 117.374 125.393C117.374 124.342 117.567 123.387 117.952 122.528C118.32 121.67 118.837 120.987 119.503 120.479C120.169 119.971 120.922 119.69 121.763 119.638L121.763 122.266C121.15 122.353 120.668 122.677 120.317 123.238C119.967 123.799 119.792 124.587 119.792 125.603C119.792 126.409 119.914 127.022 120.16 127.443C120.405 127.846 120.764 128.047 121.237 128.047C121.745 128.047 122.131 127.793 122.393 127.285C122.656 126.777 122.858 125.901 122.998 124.657C123.191 122.94 123.611 121.67 124.259 120.847C124.908 120.006 125.81 119.585 126.966 119.585C128.298 119.585 129.34 120.111 130.093 121.162C130.829 122.213 131.197 123.597 131.197 125.314ZM131.197 112.238C131.197 113.447 131.004 114.507 130.619 115.418C130.216 116.311 129.673 117.003 128.99 117.494C128.289 117.984 127.492 118.247 126.598 118.282L126.598 115.654C127.264 115.567 127.798 115.225 128.201 114.629C128.587 114.034 128.779 113.202 128.779 112.133C128.779 110.223 128.228 109.268 127.124 109.268C126.598 109.268 126.204 109.505 125.941 109.978C125.661 110.433 125.451 111.222 125.311 112.343C125.083 114.2 124.654 115.567 124.023 116.443C123.375 117.301 122.49 117.73 121.369 117.73C120.125 117.73 119.152 117.24 118.452 116.259C117.733 115.26 117.374 113.946 117.374 112.317C117.374 111.266 117.567 110.311 117.952 109.452C118.32 108.594 118.837 107.911 119.503 107.403C120.169 106.894 120.922 106.614 121.763 106.562L121.763 109.19C121.15 109.277 120.668 109.601 120.317 110.162C119.967 110.723 119.792 111.511 119.792 112.527C119.792 113.333 119.914 113.946 120.16 114.367C120.405 114.77 120.764 114.971 121.237 114.971C121.745 114.971 122.131 114.717 122.393 114.209C122.656 113.701 122.858 112.825 122.998 111.581C123.191 109.864 123.611 108.594 124.259 107.77C124.908 106.93 125.81 106.509 126.966 106.509C128.298 106.509 129.34 107.035 130.093 108.086C130.829 109.137 131.197 110.521 131.197 112.238ZM117.374 98.321C117.374 97.042 117.654 95.8945 118.215 94.8784C118.776 93.8447 119.555 93.0388 120.554 92.4606C121.535 91.8825 122.656 91.5934 123.918 91.5934C124.286 91.5934 124.671 91.6197 125.074 91.6723L125.074 102.342C126.248 102.219 127.168 101.79 127.833 101.054C128.499 100.318 128.832 99.3546 128.832 98.1633C128.832 97.1822 128.622 96.3675 128.201 95.7193C127.763 95.0711 127.264 94.6681 126.703 94.5104L126.703 91.8825C127.492 92.0051 128.228 92.3468 128.911 92.9074C129.594 93.468 130.146 94.2126 130.566 95.1411C130.987 96.0522 131.197 97.0683 131.197 98.1896C131.197 99.521 130.908 100.712 130.33 101.764C129.734 102.797 128.911 103.612 127.86 104.208C126.808 104.786 125.608 105.075 124.259 105.075C122.928 105.075 121.745 104.786 120.712 104.208C119.66 103.629 118.846 102.832 118.268 101.816C117.672 100.782 117.374 99.6174 117.374 98.321ZM119.739 98.2421C119.739 99.2933 120.011 100.169 120.554 100.87C121.097 101.553 121.859 102.009 122.84 102.237L122.84 94.1425C121.877 94.3528 121.123 94.8258 120.58 95.5616C120.02 96.2799 119.739 97.1734 119.739 98.2421ZM120.081 82.261L120.081 85.6773L127.229 85.6773C127.719 85.6773 128.052 85.5897 128.228 85.4145C128.403 85.2393 128.49 84.9064 128.49 84.4159L128.49 82.261L130.855 82.261L130.855 84.8101C130.855 86.089 130.593 86.9913 130.067 87.5168C129.541 88.0424 128.639 88.3052 127.36 88.3052L120.081 88.3052L120.081 91.0646L117.716 91.0646L117.716 88.3052L113.511 88.3052L113.511 85.6773L117.716 85.6773L117.716 82.261L120.081 82.261ZM131.197 75.1656C131.197 76.3744 131.004 77.4343 130.619 78.3454C130.216 79.2389 129.673 79.9309 128.99 80.4214C128.289 80.912 127.492 81.1748 126.598 81.2098L126.598 78.5819C127.264 78.4943 127.798 78.1526 128.201 77.557C128.587 76.9613 128.779 76.1291 128.779 75.0604C128.779 73.1508 128.228 72.196 127.124 72.196C126.598 72.196 126.204 72.4325 125.941 72.9055C125.661 73.361 125.451 74.1494 125.311 75.2707C125.083 77.1278 124.654 78.4943 124.023 79.3703C123.375 80.2287 122.49 80.6579 121.369 80.6579C120.125 80.6579 119.152 80.1674 118.452 79.1863C117.733 78.1877 117.374 76.8737 117.374 75.2444C117.374 74.1932 117.567 73.2384 117.952 72.3799C118.32 71.5215 118.837 70.8382 119.503 70.3301C120.169 69.8221 120.922 69.5418 121.763 69.4892L121.763 72.1171C121.15 72.2047 120.668 72.5289 120.317 73.0895C119.967 73.6501 119.792 74.4385 119.792 75.4546C119.792 76.2605 119.914 76.8737 120.16 77.2942C120.405 77.6971 120.764 77.8986 121.237 77.8986C121.745 77.8986 122.131 77.6446 122.393 77.1365C122.656 76.6284 122.858 75.7525 122.998 74.5086C123.191 72.7917 123.611 71.5215 124.259 70.6981C124.908 69.8571 125.81 69.4366 126.966 69.4366C128.298 69.4366 129.34 69.9622 130.093 71.0134C130.829 72.0646 131.197 73.4486 131.197 75.1656Z" fill="#E3FD5A"/>
<rect x="89.021" y="343.71" width="316.82" height="69.39" transform="rotate(-90 89.021 343.71)" stroke="white" stroke-width="1.45997"/>
<path d="M219.406 300.96C219.406 302.677 219.135 304.14 218.591 305.349C218.031 306.54 217.269 307.451 216.305 308.082C215.324 308.695 214.203 309.002 212.941 309.002L212.941 306.243C214.08 306.243 215.009 305.77 215.727 304.824C216.428 303.877 216.778 302.563 216.778 300.882C216.778 299.568 216.542 298.543 216.069 297.807C215.596 297.054 214.886 296.677 213.94 296.677C213.362 296.677 212.889 296.817 212.521 297.097C212.153 297.36 211.855 297.798 211.627 298.411C211.382 299.025 211.172 299.874 210.997 300.96C210.699 302.835 210.34 304.298 209.919 305.349C209.499 306.4 208.956 307.154 208.29 307.609C207.624 308.047 206.766 308.266 205.715 308.266C204.05 308.266 202.736 307.644 201.773 306.4C200.809 305.139 200.327 303.413 200.327 301.223C200.327 299.752 200.581 298.464 201.089 297.36C201.597 296.256 202.298 295.415 203.192 294.837C204.085 294.242 205.093 293.944 206.214 293.944L206.214 296.703C205.128 296.703 204.313 297.141 203.77 298.017C203.227 298.876 202.955 299.979 202.955 301.328C202.955 302.59 203.174 303.58 203.612 304.298C204.05 305.016 204.698 305.375 205.557 305.375C206.117 305.375 206.573 305.235 206.923 304.955C207.256 304.657 207.537 304.175 207.764 303.51C207.975 302.826 208.159 301.854 208.316 300.593C208.614 298.192 209.201 296.458 210.077 295.389C210.953 294.321 212.206 293.786 213.835 293.786C215.569 293.786 216.936 294.434 217.934 295.731C218.916 297.027 219.406 298.77 219.406 300.96ZM208.29 283.933L208.29 287.349L215.438 287.349C215.928 287.349 216.261 287.262 216.437 287.086C216.612 286.911 216.699 286.578 216.699 286.088L216.699 283.933L219.064 283.933L219.064 286.482C219.064 287.761 218.802 288.663 218.276 289.189C217.75 289.714 216.848 289.977 215.569 289.977L208.29 289.977L208.29 292.736L205.925 292.736L205.925 289.977L201.72 289.977L201.72 287.349L205.925 287.349L205.925 283.933L208.29 283.933ZM219.064 281.962L205.925 281.962L205.925 279.334L207.948 279.334L207.948 279.15C207.16 278.887 206.608 278.493 206.293 277.967C205.96 277.442 205.793 276.715 205.793 275.786L205.793 275.077L208.421 275.077L208.421 276.811C208.421 277.687 208.719 278.327 209.315 278.73C209.893 279.132 210.69 279.334 211.706 279.334L219.064 279.334L219.064 281.962ZM219.406 268.059C219.406 269.321 219.117 270.442 218.539 271.423C217.943 272.404 217.12 273.175 216.069 273.736C215.017 274.279 213.826 274.55 212.495 274.55C211.181 274.55 209.998 274.279 208.947 273.736C207.896 273.175 207.072 272.404 206.477 271.423C205.881 270.442 205.583 269.321 205.583 268.059C205.583 267.113 205.776 266.22 206.161 265.379C206.547 264.52 207.142 263.863 207.948 263.408L207.948 263.224L205.925 263.224L205.925 260.596L219.064 260.596L219.064 263.224L217.041 263.224L217.041 263.408C217.847 263.863 218.443 264.512 218.828 265.352C219.213 266.193 219.406 267.096 219.406 268.059ZM216.91 267.507C216.91 266.211 216.515 265.177 215.727 264.406C214.921 263.618 213.844 263.224 212.495 263.224C211.146 263.224 210.077 263.618 209.289 264.406C208.483 265.177 208.08 266.211 208.08 267.507C208.08 268.804 208.483 269.846 209.289 270.635C210.077 271.405 211.146 271.791 212.495 271.791C213.844 271.791 214.921 271.405 215.727 270.635C216.515 269.846 216.91 268.804 216.91 267.507ZM208.29 250.351L208.29 253.767L215.438 253.767C215.928 253.767 216.261 253.679 216.437 253.504C216.612 253.329 216.699 252.996 216.699 252.506L216.699 250.351L219.064 250.351L219.064 252.9C219.064 254.179 218.802 255.081 218.276 255.607C217.75 256.132 216.848 256.395 215.569 256.395L208.29 256.395L208.29 259.154L205.925 259.154L205.925 256.395L201.72 256.395L201.72 253.767L205.925 253.767L205.925 250.351L208.29 250.351ZM205.583 242.414C205.583 241.135 205.863 239.988 206.424 238.972C206.985 237.938 207.764 237.132 208.763 236.554C209.744 235.976 210.865 235.687 212.127 235.687C212.495 235.687 212.88 235.713 213.283 235.766L213.283 246.435C214.457 246.312 215.377 245.883 216.042 245.147C216.708 244.411 217.041 243.448 217.041 242.257C217.041 241.275 216.831 240.461 216.41 239.813C215.972 239.164 215.473 238.761 214.912 238.604L214.912 235.976C215.701 236.098 216.437 236.44 217.12 237.001C217.803 237.561 218.355 238.306 218.775 239.234C219.196 240.145 219.406 241.162 219.406 242.283C219.406 243.614 219.117 244.806 218.539 245.857C217.943 246.891 217.12 247.705 216.069 248.301C215.017 248.879 213.817 249.168 212.468 249.168C211.137 249.168 209.954 248.879 208.921 248.301C207.869 247.723 207.055 246.926 206.477 245.909C205.881 244.876 205.583 243.711 205.583 242.414ZM207.948 242.335C207.948 243.387 208.22 244.263 208.763 244.963C209.306 245.647 210.068 246.102 211.049 246.33L211.049 238.236C210.086 238.446 209.332 238.919 208.789 239.655C208.229 240.373 207.948 241.267 207.948 242.335ZM203.034 228.509C203.034 229 203.122 229.333 203.297 229.508C203.472 229.683 203.805 229.771 204.295 229.771L205.925 229.771L205.925 226.354L208.29 226.354L208.29 229.771L219.064 229.771L219.064 232.399L208.29 232.399L208.29 235.158L205.925 235.158L205.925 232.399L204.164 232.399C202.885 232.399 201.983 232.136 201.457 231.61C200.932 231.067 200.669 230.156 200.669 228.877L200.669 226.354L203.034 226.354L203.034 228.509ZM219.064 222.14L219.064 224.768L205.925 224.768L205.925 222.14L219.064 222.14ZM203.586 222.088L203.586 224.821L200.853 224.821L200.853 222.088L203.586 222.088ZM219.406 213.062C219.406 214.411 219.117 215.611 218.539 216.662C217.943 217.713 217.12 218.536 216.069 219.132C215.017 219.728 213.826 220.026 212.495 220.026C211.181 220.026 209.998 219.728 208.947 219.132C207.896 218.536 207.072 217.713 206.477 216.662C205.881 215.611 205.583 214.411 205.583 213.062C205.583 211.853 205.82 210.767 206.293 209.803C206.748 208.839 207.396 208.06 208.237 207.464C209.078 206.868 210.033 206.518 211.102 206.413L211.102 209.041C210.173 209.216 209.437 209.672 208.894 210.407C208.351 211.143 208.08 212.037 208.08 213.088C208.08 214.349 208.483 215.365 209.289 216.136C210.094 216.89 211.163 217.266 212.495 217.266C213.826 217.266 214.895 216.89 215.701 216.136C216.507 215.365 216.91 214.349 216.91 213.088C216.91 212.037 216.629 211.143 216.069 210.407C215.508 209.672 214.763 209.216 213.835 209.041L213.835 206.413C214.921 206.501 215.885 206.842 216.726 207.438C217.567 208.016 218.224 208.796 218.697 209.777C219.17 210.758 219.406 211.853 219.406 213.062ZM219.064 195.813L219.064 198.52L200.669 198.52L200.669 195.813L219.064 195.813ZM219.064 192.661L205.925 192.661L205.925 190.033L207.633 190.033L207.633 189.849C206.95 189.464 206.442 188.93 206.109 188.246C205.758 187.545 205.583 186.766 205.583 185.907C205.583 184.401 206.056 183.218 207.002 182.36C207.931 181.501 209.227 181.072 210.892 181.072L219.064 181.072L219.064 183.7L211.365 183.7C210.313 183.7 209.508 183.98 208.947 184.541C208.369 185.084 208.08 185.855 208.08 186.853C208.08 187.87 208.369 188.658 208.947 189.219C209.525 189.762 210.331 190.033 211.365 190.033L219.064 190.033L219.064 192.661ZM203.034 173.099C203.034 173.589 203.122 173.922 203.297 174.097C203.472 174.272 203.805 174.36 204.295 174.36L205.925 174.36L205.925 170.944L208.29 170.944L208.29 174.36L219.064 174.36L219.064 176.988L208.29 176.988L208.29 179.747L205.925 179.747L205.925 176.988L204.164 176.988C202.885 176.988 201.983 176.725 201.457 176.2C200.932 175.657 200.669 174.745 200.669 173.467L200.669 170.944L203.034 170.944L203.034 173.099ZM219.064 169.358L205.925 169.358L205.925 166.73L207.948 166.73L207.948 166.546C207.16 166.283 206.608 165.889 206.293 165.363C205.96 164.838 205.793 164.111 205.793 163.182L205.793 162.473L208.421 162.473L208.421 164.207C208.421 165.083 208.719 165.722 209.315 166.125C209.893 166.528 210.69 166.73 211.706 166.73L219.064 166.73L219.064 169.358ZM219.406 155.455C219.406 156.717 219.117 157.838 218.539 158.819C217.943 159.8 217.12 160.571 216.069 161.131C215.017 161.675 213.826 161.946 212.495 161.946C211.181 161.946 209.998 161.675 208.947 161.131C207.896 160.571 207.072 159.8 206.477 158.819C205.881 157.838 205.583 156.717 205.583 155.455C205.583 154.509 205.776 153.616 206.161 152.775C206.547 151.916 207.142 151.259 207.948 150.804L207.948 150.62L205.925 150.62L205.925 147.992L219.064 147.992L219.064 150.62L217.041 150.62L217.041 150.804C217.847 151.259 218.442 151.907 218.828 152.748C219.213 153.589 219.406 154.492 219.406 155.455ZM216.91 154.903C216.91 153.607 216.515 152.573 215.727 151.802C214.921 151.014 213.844 150.62 212.495 150.62C211.146 150.62 210.077 151.014 209.289 151.802C208.483 152.573 208.08 153.607 208.08 154.903C208.08 156.2 208.483 157.242 209.289 158.031C210.077 158.801 211.146 159.187 212.495 159.187C213.844 159.187 214.921 158.801 215.727 158.031C216.515 157.242 216.91 156.2 216.91 154.903ZM219.406 139.98C219.406 141.189 219.213 142.249 218.828 143.16C218.425 144.054 217.882 144.746 217.199 145.236C216.498 145.727 215.701 145.989 214.807 146.024L214.807 143.397C215.473 143.309 216.007 142.967 216.41 142.372C216.796 141.776 216.988 140.944 216.988 139.875C216.988 137.965 216.437 137.011 215.333 137.011C214.807 137.011 214.413 137.247 214.15 137.72C213.87 138.176 213.66 138.964 213.519 140.085C213.292 141.942 212.863 143.309 212.232 144.185C211.584 145.043 210.699 145.473 209.578 145.473C208.334 145.473 207.361 144.982 206.661 144.001C205.942 143.002 205.583 141.688 205.583 140.059C205.583 139.008 205.776 138.053 206.161 137.195C206.529 136.336 207.046 135.653 207.712 135.145C208.377 134.637 209.131 134.356 209.972 134.304L209.972 136.932C209.359 137.019 208.877 137.344 208.526 137.904C208.176 138.465 208.001 139.253 208.001 140.269C208.001 141.075 208.123 141.688 208.369 142.109C208.614 142.512 208.973 142.713 209.446 142.713C209.954 142.713 210.34 142.459 210.602 141.951C210.865 141.443 211.067 140.567 211.207 139.323C211.4 137.606 211.82 136.336 212.468 135.513C213.117 134.672 214.019 134.251 215.175 134.251C216.507 134.251 217.549 134.777 218.302 135.828C219.038 136.879 219.406 138.263 219.406 139.98ZM208.29 124.67L208.29 128.087L215.438 128.087C215.928 128.087 216.261 127.999 216.437 127.824C216.612 127.649 216.699 127.316 216.699 126.825L216.699 124.67L219.064 124.67L219.064 127.22C219.064 128.498 218.802 129.401 218.276 129.926C217.75 130.452 216.848 130.715 215.569 130.715L208.29 130.715L208.29 133.474L205.925 133.474L205.925 130.715L201.72 130.715L201.72 128.087L205.925 128.087L205.925 124.67L208.29 124.67ZM219.406 118.048C219.406 119.537 218.942 120.711 218.013 121.569C217.067 122.41 215.762 122.831 214.098 122.831L205.925 122.831L205.925 120.203L213.625 120.203C214.676 120.203 215.49 119.94 216.069 119.415C216.629 118.871 216.91 118.101 216.91 117.102C216.91 116.103 216.62 115.333 216.042 114.789C215.464 114.246 214.658 113.975 213.625 113.975L205.925 113.975L205.925 111.347L219.064 111.347L219.064 113.975L217.356 113.975L217.356 114.159C218.057 114.544 218.574 115.078 218.907 115.762C219.24 116.445 219.406 117.207 219.406 118.048ZM219.406 102.293C219.406 103.642 219.117 104.842 218.539 105.893C217.943 106.944 217.12 107.768 216.069 108.363C215.017 108.959 213.826 109.257 212.495 109.257C211.181 109.257 209.998 108.959 208.947 108.363C207.896 107.768 207.072 106.944 206.477 105.893C205.881 104.842 205.583 103.642 205.583 102.293C205.583 101.084 205.82 99.9979 206.293 99.0343C206.748 98.0707 207.396 97.2911 208.237 96.6954C209.078 96.0998 210.033 95.7494 211.102 95.6443L211.102 98.2722C210.173 98.4474 209.437 98.9029 208.894 99.6387C208.351 100.375 208.08 101.268 208.08 102.319C208.08 103.581 208.483 104.597 209.289 105.368C210.094 106.121 211.163 106.498 212.495 106.498C213.826 106.498 214.895 106.121 215.701 105.368C216.507 104.597 216.91 103.581 216.91 102.319C216.91 101.268 216.629 100.375 216.069 99.6387C215.508 98.9029 214.763 98.4474 213.835 98.2722L213.835 95.6443C214.921 95.7319 215.885 96.0735 216.726 96.6692C217.567 97.2473 218.224 98.0269 218.697 99.008C219.17 99.9891 219.406 101.084 219.406 102.293ZM208.29 86.4432L208.29 89.8595L215.438 89.8595C215.928 89.8595 216.261 89.7719 216.437 89.5967C216.612 89.4215 216.699 89.0886 216.699 88.5981L216.699 86.4432L219.064 86.4432L219.064 88.9923C219.064 90.2712 218.802 91.1735 218.276 91.6991C217.75 92.2246 216.848 92.4874 215.569 92.4874L208.29 92.4874L208.29 95.2468L205.925 95.2468L205.925 92.4874L201.72 92.4874L201.72 89.8595L205.925 89.8595L205.925 86.4432L208.29 86.4432ZM219.406 79.8208C219.406 81.3099 218.942 82.4837 218.013 83.3422C217.067 84.1831 215.762 84.6036 214.098 84.6036L205.925 84.6036L205.925 81.9757L213.625 81.9757C214.676 81.9757 215.49 81.7129 216.069 81.1873C216.629 80.6442 216.91 79.8733 216.91 78.8747C216.91 77.8761 216.62 77.1052 216.042 76.5621C215.464 76.019 214.658 75.7475 213.625 75.7475L205.925 75.7475L205.925 73.1195L219.064 73.1195L219.064 75.7475L217.356 75.7475L217.356 75.9314C218.057 76.3168 218.574 76.8512 218.907 77.5345C219.24 78.2177 219.406 78.9798 219.406 79.8208ZM219.064 70.2413L205.925 70.2413L205.925 67.6134L207.948 67.6134L207.948 67.4294C207.16 67.1666 206.608 66.7724 206.293 66.2468C205.96 65.7212 205.793 64.9942 205.793 64.0656L205.793 63.3561L208.421 63.3561L208.421 65.0905C208.421 65.9665 208.719 66.606 209.315 67.0089C209.893 67.4119 210.69 67.6134 211.706 67.6134L219.064 67.6134L219.064 70.2413ZM205.583 56.0759C205.583 54.797 205.863 53.6495 206.424 52.6333C206.985 51.5997 207.764 50.7938 208.763 50.2156C209.744 49.6375 210.865 49.3484 212.127 49.3484C212.495 49.3484 212.88 49.3747 213.283 49.4272L213.283 60.0967C214.457 59.974 215.377 59.5448 216.042 58.809C216.708 58.0732 217.041 57.1096 217.041 55.9183C217.041 54.9372 216.831 54.1225 216.41 53.4743C215.972 52.826 215.473 52.4231 214.912 52.2654L214.912 49.6375C215.701 49.7601 216.437 50.1017 217.12 50.6624C217.803 51.223 218.355 51.9676 218.775 52.8961C219.196 53.8071 219.406 54.8233 219.406 55.9445C219.406 57.276 219.117 58.4674 218.539 59.5185C217.943 60.5522 217.12 61.3668 216.069 61.9625C215.017 62.5407 213.817 62.8297 212.468 62.8297C211.137 62.8297 209.954 62.5407 208.921 61.9625C207.869 61.3844 207.055 60.5872 206.477 59.5711C205.881 58.5374 205.583 57.3724 205.583 56.0759ZM207.948 55.9971C207.948 57.0483 208.22 57.9242 208.763 58.625C209.306 59.3083 210.068 59.7638 211.049 59.9916L211.049 51.8975C210.086 52.1077 209.332 52.5808 208.789 53.3166C208.229 54.0349 207.948 54.9284 207.948 55.9971Z" fill="#E3FD5A"/>
<rect x="177.308" y="370.96" width="370.23" height="69.39" transform="rotate(-90 177.308 370.96)" stroke="white" stroke-width="1.45997"/>
<path d="M889.559 145.629L889.559 141.845L907.954 134.933L907.954 137.903L892.187 143.684L892.187 143.868L907.954 149.65L907.954 152.54L889.559 145.629ZM903.04 159.035C903.04 160.314 902.76 161.462 902.199 162.478C901.638 163.512 900.859 164.318 899.86 164.896C898.879 165.474 897.758 165.763 896.496 165.763C896.128 165.763 895.743 165.737 895.34 165.684L895.34 155.015C894.166 155.137 893.246 155.566 892.581 156.302C891.915 157.038 891.582 158.002 891.582 159.193C891.582 160.174 891.792 160.989 892.213 161.637C892.651 162.285 893.15 162.688 893.711 162.846L893.711 165.474C892.922 165.351 892.187 165.01 891.503 164.449C890.82 163.888 890.268 163.144 889.848 162.215C889.427 161.304 889.217 160.288 889.217 159.167C889.217 157.835 889.506 156.644 890.084 155.593C890.68 154.559 891.503 153.744 892.554 153.149C893.606 152.571 894.806 152.282 896.155 152.282C897.486 152.282 898.669 152.571 899.702 153.149C900.754 153.727 901.568 154.524 902.146 155.54C902.742 156.574 903.04 157.739 903.04 159.035ZM900.675 159.114C900.675 158.063 900.403 157.187 899.86 156.486C899.317 155.803 898.555 155.347 897.574 155.12L897.574 163.214C898.537 163.004 899.291 162.531 899.834 161.795C900.394 161.076 900.675 160.183 900.675 159.114ZM889.559 167.737L902.698 167.737L902.698 170.365L900.99 170.365L900.99 170.549C901.673 170.934 902.181 171.469 902.514 172.152C902.865 172.853 903.04 173.632 903.04 174.491C903.04 175.998 902.567 177.18 901.621 178.039C900.692 178.897 899.396 179.326 897.731 179.326L889.559 179.326L889.559 176.698L897.258 176.698C898.31 176.698 899.116 176.418 899.676 175.857C900.254 175.314 900.543 174.543 900.543 173.545C900.543 172.529 900.254 171.74 899.676 171.18C899.098 170.637 898.292 170.365 897.258 170.365L889.559 170.365L889.559 167.737ZM900.333 189.455L900.333 186.038L893.185 186.038C892.695 186.038 892.362 186.126 892.187 186.301C892.011 186.476 891.924 186.809 891.924 187.3L891.924 189.455L889.559 189.455L889.559 186.905C889.559 185.627 889.821 184.724 890.347 184.199C890.873 183.673 891.775 183.41 893.054 183.41L900.333 183.41L900.333 180.651L902.698 180.651L902.698 183.41L906.903 183.41L906.903 186.038L902.698 186.038L902.698 189.455L900.333 189.455ZM889.217 196.077C889.217 194.588 889.681 193.414 890.61 192.556C891.556 191.715 892.861 191.294 894.525 191.294L902.698 191.294L902.698 193.922L894.998 193.922C893.947 193.922 893.133 194.185 892.554 194.71C891.994 195.254 891.714 196.024 891.714 197.023C891.714 198.022 892.003 198.793 892.581 199.336C893.159 199.879 893.965 200.15 894.998 200.15L902.698 200.15L902.698 202.778L889.559 202.778L889.559 200.15L891.267 200.15L891.267 199.966C890.566 199.581 890.049 199.047 889.716 198.363C889.383 197.68 889.217 196.918 889.217 196.077ZM889.559 205.656L902.698 205.656L902.698 208.284L900.675 208.284L900.675 208.468C901.463 208.731 902.015 209.125 902.33 209.651C902.663 210.176 902.83 210.904 902.83 211.832L902.83 212.542L900.202 212.542L900.202 210.807C900.202 209.931 899.904 209.292 899.308 208.889C898.73 208.486 897.933 208.284 896.917 208.284L889.559 208.284L889.559 205.656ZM903.04 219.822C903.04 221.101 902.76 222.248 902.199 223.264C901.638 224.298 900.859 225.104 899.86 225.682C898.879 226.26 897.758 226.549 896.496 226.549C896.128 226.549 895.743 226.523 895.34 226.471L895.34 215.801C894.166 215.924 893.246 216.353 892.581 217.089C891.915 217.825 891.582 218.788 891.582 219.98C891.582 220.961 891.792 221.775 892.213 222.424C892.651 223.072 893.15 223.475 893.711 223.632L893.711 226.26C892.922 226.138 892.187 225.796 891.503 225.235C890.82 224.675 890.268 223.93 889.848 223.002C889.427 222.091 889.217 221.075 889.217 219.953C889.217 218.622 889.506 217.43 890.084 216.379C890.68 215.346 891.503 214.531 892.554 213.935C893.606 213.357 894.806 213.068 896.155 213.068C897.486 213.068 898.669 213.357 899.702 213.935C900.754 214.513 901.568 215.311 902.146 216.327C902.742 217.36 903.04 218.525 903.04 219.822ZM900.675 219.901C900.675 218.85 900.403 217.974 899.86 217.273C899.317 216.589 898.555 216.134 897.574 215.906L897.574 224C898.537 223.79 899.291 223.317 899.834 222.581C900.394 221.863 900.675 220.969 900.675 219.901Z" fill="#E3FD5A"/>
<rect x="933.129" y="65.0401" width="241.61" height="69.39" transform="rotate(90 933.129 65.0401)" stroke="white" stroke-width="1.45997"/>
<path d="M821.044 91.2424C821.044 92.6089 820.807 93.7915 820.334 94.7901C819.861 95.7887 819.196 96.5421 818.337 97.0501C817.496 97.5757 816.524 97.8385 815.42 97.8385C814.316 97.8385 813.335 97.5757 812.477 97.0501C811.618 96.5421 810.953 95.7887 810.48 94.7901C810.007 93.7915 809.77 92.6089 809.77 91.2424L809.77 85.8025L802.648 85.8025L802.648 83.0432L821.044 83.0432L821.044 91.2424ZM812.346 91.2424C812.346 92.4337 812.608 93.3447 813.134 93.9754C813.677 94.6237 814.439 94.9478 815.42 94.9478C816.401 94.9478 817.155 94.6237 817.68 93.9754C818.206 93.3447 818.469 92.4337 818.469 91.2424L818.469 85.8025L812.346 85.8025L812.346 91.2424ZM802.648 99.552L815.788 99.552L815.788 102.18L813.765 102.18L813.765 102.364C814.553 102.627 815.105 103.021 815.42 103.546C815.753 104.072 815.92 104.799 815.92 105.728L815.92 106.437L813.292 106.437L813.292 104.703C813.292 103.827 812.994 103.187 812.398 102.784C811.82 102.381 811.023 102.18 810.007 102.18L802.648 102.18L802.648 99.552ZM816.13 113.717C816.13 114.996 815.849 116.144 815.289 117.16C814.728 118.194 813.949 119 812.95 119.578C811.969 120.156 810.848 120.445 809.586 120.445C809.218 120.445 808.833 120.419 808.43 120.366L808.43 109.697C807.256 109.819 806.336 110.249 805.671 110.984C805.005 111.72 804.672 112.684 804.672 113.875C804.672 114.856 804.882 115.671 805.303 116.319C805.741 116.967 806.24 117.37 806.801 117.528L806.801 120.156C806.012 120.033 805.276 119.692 804.593 119.131C803.91 118.57 803.358 117.826 802.938 116.897C802.517 115.986 802.307 114.97 802.307 113.849C802.307 112.517 802.596 111.326 803.174 110.275C803.77 109.241 804.593 108.426 805.644 107.831C806.695 107.253 807.896 106.964 809.245 106.964C810.576 106.964 811.759 107.253 812.792 107.831C813.843 108.409 814.658 109.206 815.236 110.222C815.832 111.256 816.13 112.421 816.13 113.717ZM813.765 113.796C813.765 112.745 813.493 111.869 812.95 111.168C812.407 110.485 811.645 110.03 810.664 109.802L810.664 117.896C811.627 117.686 812.381 117.213 812.924 116.477C813.484 115.758 813.765 114.865 813.765 113.796ZM809.113 129.515L809.113 121.762L811.636 121.762L811.636 129.515L809.113 129.515ZM802.648 134.455L802.648 131.827L821.044 131.827L821.044 134.455L802.648 134.455ZM802.648 140.061L802.648 137.433L815.788 137.433L815.788 140.061L802.648 140.061ZM818.127 140.114L818.127 137.381L820.86 137.381L820.86 140.114L818.127 140.114ZM797.393 153.502L804.672 153.502L804.672 153.318C803.866 152.863 803.27 152.215 802.885 151.374C802.5 150.533 802.307 149.631 802.307 148.667C802.307 147.406 802.596 146.284 803.174 145.303C803.77 144.322 804.593 143.551 805.644 142.991C806.695 142.448 807.887 142.176 809.218 142.176C810.532 142.176 811.715 142.448 812.766 142.991C813.817 143.551 814.641 144.322 815.236 145.303C815.832 146.284 816.13 147.406 816.13 148.667C816.13 149.613 815.937 150.507 815.552 151.347C815.166 152.206 814.571 152.863 813.765 153.318L813.765 153.502L815.788 153.502L815.788 156.13L797.393 156.13L797.393 153.502ZM804.803 149.219C804.803 150.515 805.198 151.549 805.986 152.32C806.792 153.108 807.869 153.502 809.218 153.502C810.567 153.502 811.636 153.108 812.424 152.32C813.23 151.549 813.633 150.515 813.633 149.219C813.633 147.922 813.23 146.88 812.424 146.092C811.636 145.321 810.567 144.935 809.218 144.935C807.869 144.935 806.792 145.321 805.986 146.092C805.198 146.88 804.803 147.922 804.803 149.219ZM802.307 163.669C802.307 162.18 802.771 161.006 803.7 160.147C804.646 159.306 805.951 158.886 807.615 158.886L815.788 158.886L815.788 161.514L808.088 161.514C807.037 161.514 806.222 161.777 805.644 162.302C805.084 162.845 804.803 163.616 804.803 164.615C804.803 165.613 805.092 166.384 805.671 166.927C806.249 167.471 807.055 167.742 808.088 167.742L815.788 167.742L815.788 170.37L802.648 170.37L802.648 167.742L804.357 167.742L804.357 167.558C803.656 167.173 803.139 166.638 802.806 165.955C802.473 165.272 802.307 164.51 802.307 163.669ZM802.648 175.876L802.648 173.248L815.788 173.248L815.788 175.876L802.648 175.876ZM818.127 175.929L818.127 173.196L820.86 173.196L820.86 175.929L818.127 175.929ZM802.307 184.482C802.307 183.22 802.596 182.099 803.174 181.118C803.77 180.137 804.593 179.366 805.644 178.806C806.695 178.262 807.887 177.991 809.218 177.991C810.532 177.991 811.715 178.262 812.766 178.806C813.817 179.366 814.641 180.137 815.236 181.118C815.832 182.099 816.13 183.22 816.13 184.482C816.13 185.428 815.937 186.321 815.552 187.162C815.166 188.021 814.571 188.678 813.765 189.133L813.765 189.317L821.044 189.317L821.044 191.945L802.648 191.945L802.648 189.317L804.672 189.317L804.672 189.133C803.866 188.678 803.27 188.03 802.885 187.189C802.5 186.348 802.307 185.445 802.307 184.482ZM804.803 185.034C804.803 186.33 805.198 187.364 805.986 188.135C806.792 188.923 807.869 189.317 809.218 189.317C810.567 189.317 811.636 188.923 812.424 188.135C813.23 187.364 813.633 186.33 813.633 185.034C813.633 183.737 813.23 182.695 812.424 181.906C811.636 181.136 810.567 180.75 809.218 180.75C807.869 180.75 806.792 181.136 805.986 181.906C805.198 182.695 804.803 183.737 804.803 185.034ZM802.648 197.537L802.648 194.909L815.788 194.909L815.788 197.537L802.648 197.537ZM818.127 197.59L818.127 194.857L820.86 194.857L820.86 197.59L818.127 197.59ZM813.423 207.798L813.423 204.382L806.275 204.382C805.784 204.382 805.452 204.47 805.276 204.645C805.101 204.82 805.014 205.153 805.014 205.644L805.014 207.798L802.648 207.798L802.648 205.249C802.648 203.97 802.911 203.068 803.437 202.543C803.962 202.017 804.865 201.754 806.144 201.754L813.423 201.754L813.423 198.995L815.788 198.995L815.788 201.754L819.993 201.754L819.993 204.382L815.788 204.382L815.788 207.798L813.423 207.798ZM815.788 218.626L815.788 221.332L800.152 215.893C799.118 215.525 798.4 215.087 797.997 214.579C797.594 214.088 797.393 213.387 797.393 212.476L797.393 210.058L799.784 210.058L799.784 212.266C799.784 212.669 799.854 212.958 799.994 213.133C800.134 213.308 800.406 213.466 800.809 213.606L802.648 214.211L802.648 213.159L815.788 208.061L815.788 210.873L805.198 214.841L805.198 215.025L815.788 218.626ZM802.307 237.228C802.307 235.424 802.71 233.812 803.516 232.393C804.339 230.991 805.469 229.888 806.906 229.082C808.36 228.293 810.007 227.899 811.846 227.899C813.686 227.899 815.324 228.293 816.76 229.082C818.215 229.888 819.345 230.991 820.151 232.393C820.974 233.812 821.386 235.424 821.386 237.228C821.386 239.033 820.974 240.636 820.151 242.037C819.345 243.457 818.215 244.56 816.76 245.349C815.324 246.155 813.686 246.557 811.846 246.557C810.007 246.557 808.36 246.155 806.906 245.349C805.469 244.56 804.339 243.457 803.516 242.037C802.71 240.636 802.307 239.033 802.307 237.228ZM804.935 237.228C804.935 238.525 805.215 239.655 805.776 240.618C806.354 241.599 807.16 242.353 808.193 242.878C809.245 243.404 810.462 243.667 811.846 243.667C813.23 243.667 814.439 243.404 815.473 242.878C816.524 242.353 817.33 241.599 817.89 240.618C818.469 239.655 818.758 238.525 818.758 237.228C818.758 235.932 818.469 234.793 817.89 233.812C817.33 232.848 816.524 232.104 815.473 231.578C814.439 231.053 813.23 230.79 811.846 230.79C810.462 230.79 809.245 231.053 808.193 231.578C807.16 232.104 806.354 232.848 805.776 233.812C805.215 234.793 804.935 235.932 804.935 237.228ZM802.648 256.084L802.648 253.325L818.469 253.325L818.469 246.965L821.044 246.965L821.044 262.444L818.469 262.444L818.469 256.084L802.648 256.084ZM802.307 272.157C802.307 270.37 802.71 268.767 803.516 267.348C804.339 265.946 805.469 264.842 806.906 264.036C808.36 263.248 810.007 262.854 811.846 262.854C813.686 262.854 815.324 263.248 816.76 264.036C818.215 264.842 819.345 265.955 820.151 267.374C820.974 268.793 821.386 270.396 821.386 272.183C821.386 273.83 821.044 275.301 820.361 276.598C819.677 277.894 818.758 278.919 817.601 279.673C816.463 280.426 815.21 280.864 813.843 280.987L813.843 278.227C814.719 278.122 815.534 277.807 816.287 277.281C817.041 276.756 817.636 276.046 818.074 275.153C818.53 274.277 818.758 273.278 818.758 272.157C818.758 270.878 818.469 269.748 817.89 268.767C817.33 267.803 816.524 267.059 815.473 266.533C814.439 266.007 813.23 265.745 811.846 265.745C810.462 265.745 809.245 266.007 808.193 266.533C807.16 267.059 806.354 267.803 805.776 268.767C805.215 269.748 804.935 270.878 804.935 272.157C804.935 273.295 805.154 274.303 805.592 275.179C806.047 276.055 806.66 276.747 807.431 277.255C808.202 277.781 809.043 278.105 809.954 278.227L809.954 280.987C808.57 280.864 807.291 280.417 806.117 279.646C804.961 278.875 804.032 277.842 803.332 276.545C802.648 275.266 802.307 273.804 802.307 272.157Z" fill="#E3FD5A"/>
<rect x="844.838" y="27.9799" width="316.82" height="69.39" transform="rotate(90 844.838 27.9799)" stroke="white" stroke-width="1.45997"/>
<path d="M725.491 47.8974L732.813 47.8974L732.813 50.5034L715.439 50.5034L715.439 47.8974L723.059 47.8974L723.059 38.5157L715.439 38.5157L715.439 35.9096L732.813 35.9096L732.813 38.5157L725.491 38.5157L725.491 47.8974ZM715.117 58.8746C715.117 57.6832 715.39 56.6243 715.936 55.6977C716.498 54.7711 717.276 54.0431 718.269 53.5136C719.262 53.0006 720.387 52.7442 721.644 52.7442C722.885 52.7442 724.002 53.0006 724.995 53.5136C725.988 54.0431 726.765 54.7711 727.328 55.6977C727.891 56.6243 728.172 57.6832 728.172 58.8746C728.172 59.7681 727.99 60.6119 727.626 61.4062C727.262 62.2169 726.699 62.8374 725.938 63.2676L725.938 63.4414L727.849 63.4414L727.849 65.9233L715.439 65.9233L715.439 63.4414L717.351 63.4414L717.351 63.2676C716.589 62.8374 716.027 62.2252 715.663 61.431C715.299 60.6368 715.117 59.7846 715.117 58.8746ZM717.475 59.3958C717.475 60.6202 717.847 61.5964 718.592 62.3245C719.353 63.0691 720.37 63.4414 721.644 63.4414C722.918 63.4414 723.928 63.0691 724.672 62.3245C725.433 61.5964 725.814 60.6202 725.814 59.3958C725.814 58.1714 725.433 57.1869 724.672 56.4423C723.928 55.7142 722.918 55.3502 721.644 55.3502C720.37 55.3502 719.353 55.7142 718.592 56.4423C717.847 57.1869 717.475 58.1714 717.475 59.3958ZM715.117 73.4897C715.117 72.348 715.299 71.347 715.663 70.4866C716.043 69.6427 716.556 68.9891 717.202 68.5258C717.863 68.0626 718.616 67.8144 719.46 67.7813L719.46 70.2632C718.831 70.3459 718.327 70.6686 717.946 71.2312C717.582 71.7937 717.4 72.5797 717.4 73.589C717.4 75.3926 717.921 76.2943 718.964 76.2943C719.46 76.2943 719.832 76.071 720.081 75.6242C720.345 75.194 720.544 74.4494 720.676 73.3905C720.891 71.6365 721.297 70.3459 721.893 69.5186C722.505 68.7079 723.34 68.3025 724.399 68.3025C725.574 68.3025 726.492 68.7658 727.154 69.6924C727.833 70.6355 728.172 71.8765 728.172 73.4153C728.172 74.4081 727.99 75.3098 727.626 76.1206C727.278 76.9314 726.79 77.5767 726.161 78.0565C725.533 78.5364 724.821 78.8011 724.027 78.8507L724.027 76.3688C724.606 76.2861 725.061 75.9799 725.392 75.4505C725.723 74.921 725.888 74.1764 725.888 73.2167C725.888 72.4556 725.773 71.8765 725.541 71.4794C725.309 71.0988 724.97 70.9085 724.523 70.9085C724.044 70.9085 723.68 71.1484 723.431 71.6283C723.183 72.1081 722.993 72.9354 722.86 74.1102C722.678 75.7318 722.281 76.9314 721.669 77.709C721.057 78.5033 720.205 78.9004 719.113 78.9004C717.855 78.9004 716.871 78.404 716.159 77.4112C715.464 76.4184 715.117 75.1113 715.117 73.4897ZM715.439 81.074L732.813 81.074L732.813 83.5559L726.236 83.5559L726.236 83.7297C726.881 84.0937 727.361 84.5984 727.675 85.2437C728.006 85.9055 728.172 86.6418 728.172 87.4526C728.172 88.8756 727.725 89.9924 726.832 90.8032C725.955 91.614 724.73 92.0194 723.158 92.0194L715.439 92.0194L715.439 89.5374L722.712 89.5374C723.704 89.5374 724.465 89.2727 724.995 88.7432C725.541 88.2303 725.814 87.5022 725.814 86.5591C725.814 85.5994 725.541 84.8548 724.995 84.3253C724.449 83.8124 723.688 83.5559 722.712 83.5559L715.439 83.5559L715.439 81.074ZM715.439 94.6337L727.849 94.6337L727.849 97.1157L725.938 97.1157L725.938 97.2894C726.683 97.5376 727.204 97.9099 727.502 98.4063C727.816 98.9027 727.973 99.5894 727.973 100.466L727.973 101.136L725.491 101.136L725.491 99.4984C725.491 98.671 725.21 98.0671 724.647 97.6865C724.101 97.306 723.349 97.1157 722.389 97.1157L715.439 97.1157L715.439 94.6337ZM715.117 107.764C715.117 106.573 715.39 105.514 715.936 104.587C716.498 103.661 717.276 102.932 718.269 102.403C719.262 101.89 720.387 101.634 721.644 101.634C722.885 101.634 724.002 101.89 724.995 102.403C725.988 102.932 726.765 103.661 727.328 104.587C727.891 105.514 728.172 106.573 728.172 107.764C728.172 108.658 727.99 109.501 727.626 110.296C727.262 111.106 726.699 111.727 725.938 112.157L725.938 112.331L727.849 112.331L727.849 114.813L715.439 114.813L715.439 112.331L717.351 112.331L717.351 112.157C716.589 111.727 716.027 111.115 715.663 110.32C715.299 109.526 715.117 108.674 715.117 107.764ZM717.475 108.285C717.475 109.51 717.847 110.486 718.592 111.214C719.353 111.958 720.37 112.331 721.644 112.331C722.918 112.331 723.928 111.958 724.672 111.214C725.433 110.486 725.814 109.51 725.814 108.285C725.814 107.061 725.433 106.076 724.672 105.332C723.928 104.604 722.918 104.24 721.644 104.24C720.37 104.24 719.353 104.604 718.592 105.332C717.847 106.076 717.475 107.061 717.475 108.285ZM725.615 124.489L725.615 121.262L718.865 121.262C718.401 121.262 718.087 121.345 717.921 121.51C717.756 121.676 717.673 121.99 717.673 122.454L717.673 124.489L715.439 124.489L715.439 122.081C715.439 120.873 715.688 120.021 716.184 119.525C716.68 119.029 717.533 118.78 718.74 118.78L725.615 118.78L725.615 116.174L727.849 116.174L727.849 118.78L731.82 118.78L731.82 121.262L727.849 121.262L727.849 124.489L725.615 124.489ZM728.172 131.984C728.172 133.192 727.907 134.276 727.378 135.236C726.848 136.212 726.112 136.973 725.169 137.519C724.242 138.065 723.183 138.338 721.992 138.338C721.644 138.338 721.28 138.313 720.9 138.264L720.9 128.187C719.791 128.303 718.922 128.708 718.294 129.403C717.665 130.098 717.351 131.008 717.351 132.133C717.351 133.06 717.549 133.829 717.946 134.441C718.36 135.054 718.831 135.434 719.361 135.583L719.361 138.065C718.616 137.949 717.921 137.627 717.276 137.097C716.631 136.568 716.11 135.864 715.712 134.987C715.315 134.127 715.117 133.167 715.117 132.108C715.117 130.851 715.39 129.726 715.936 128.733C716.498 127.757 717.276 126.987 718.269 126.425C719.262 125.879 720.395 125.606 721.669 125.606C722.927 125.606 724.044 125.879 725.02 126.425C726.013 126.971 726.782 127.724 727.328 128.683C727.891 129.66 728.172 130.76 728.172 131.984ZM725.938 132.059C725.938 131.066 725.682 130.239 725.169 129.577C724.656 128.931 723.936 128.501 723.009 128.286L723.009 135.931C723.919 135.732 724.631 135.285 725.144 134.59C725.673 133.912 725.938 133.068 725.938 132.059ZM715.439 148.523L715.439 145.917L732.813 145.917L732.813 149.764L720.8 155.572L720.8 155.745L732.813 161.603L732.813 165.326L715.439 165.326L715.439 162.72L729.587 162.72L729.587 162.546L717.996 156.887L717.996 154.331L729.587 148.697L729.587 148.523L715.439 148.523ZM715.439 170.777L715.439 168.295L727.849 168.295L727.849 170.777L715.439 170.777ZM730.058 170.827L730.058 168.245L732.639 168.245L732.639 170.827L730.058 170.827ZM715.439 173.519L727.849 173.519L727.849 176.001L726.236 176.001L726.236 176.174C726.881 176.539 727.361 177.043 727.675 177.688C728.006 178.35 728.172 179.087 728.172 179.897C728.172 181.32 727.725 182.437 726.832 183.248C725.955 184.059 724.73 184.464 723.158 184.464L715.439 184.464L715.439 181.982L722.712 181.982C723.704 181.982 724.465 181.717 724.995 181.188C725.541 180.675 725.814 179.947 725.814 179.004C725.814 178.044 725.541 177.3 724.995 176.77C724.449 176.257 723.688 176.001 722.712 176.001L715.439 176.001L715.439 173.519ZM715.439 189.562L715.439 187.08L727.849 187.08L727.849 189.562L715.439 189.562ZM730.058 189.612L730.058 187.031L732.639 187.031L732.639 189.612L730.058 189.612ZM715.439 192.304L727.849 192.304L727.849 194.786L726.236 194.786L726.236 194.96C726.881 195.324 727.361 195.828 727.675 196.474C728.006 197.136 728.172 197.872 728.172 198.683C728.172 200.106 727.725 201.222 726.832 202.033C725.955 202.844 724.73 203.249 723.158 203.249L715.439 203.249L715.439 200.767L722.712 200.767C723.704 200.767 724.465 200.503 724.995 199.973C725.541 199.46 725.814 198.732 725.814 197.789C725.814 196.829 725.541 196.085 724.995 195.555C724.449 195.042 723.688 194.786 722.712 194.786L715.439 194.786L715.439 192.304ZM710.227 211.698C710.227 210.54 710.409 209.514 710.773 208.62C711.121 207.744 711.609 207.057 712.238 206.56C712.866 206.064 713.578 205.808 714.372 205.791L714.372 208.397C713.793 208.48 713.346 208.802 713.032 209.365C712.701 209.944 712.536 210.747 712.536 211.773C712.536 213.096 712.833 214.039 713.429 214.602C714.025 215.181 715.018 215.471 716.407 215.471L717.698 215.471L717.698 215.297C716.92 214.85 716.349 214.246 715.985 213.485C715.638 212.741 715.464 211.938 715.464 211.078C715.464 209.952 715.737 208.935 716.283 208.025C716.829 207.115 717.582 206.403 718.542 205.89C719.518 205.377 720.61 205.121 721.818 205.121C723.026 205.121 724.11 205.369 725.069 205.866C726.046 206.378 726.807 207.09 727.353 208C727.899 208.91 728.172 209.936 728.172 211.078C728.172 211.955 727.99 212.765 727.626 213.51C727.262 214.254 726.699 214.85 725.938 215.297L725.938 215.471L727.849 215.471L727.849 217.953L716.283 217.953C714.314 217.953 712.817 217.407 711.791 216.314C710.749 215.239 710.227 213.7 710.227 211.698ZM717.822 211.599C717.822 212.774 718.178 213.708 718.889 214.403C719.617 215.115 720.594 215.471 721.818 215.471C723.026 215.471 723.994 215.115 724.722 214.403C725.45 213.708 725.814 212.774 725.814 211.599C725.814 210.424 725.45 209.481 724.722 208.769C723.994 208.058 723.026 207.702 721.818 207.702C720.61 207.702 719.642 208.058 718.914 208.769C718.186 209.481 717.822 210.424 717.822 211.599ZM732.813 234.145C732.813 235.436 732.59 236.553 732.143 237.496C731.696 238.439 731.067 239.151 730.257 239.63C729.462 240.127 728.544 240.375 727.502 240.375C726.459 240.375 725.533 240.127 724.722 239.63C723.911 239.151 723.282 238.439 722.836 237.496C722.389 236.553 722.166 235.436 722.166 234.145L722.166 229.008L715.439 229.008L715.439 226.402L732.813 226.402L732.813 234.145ZM724.598 234.145C724.598 235.27 724.846 236.131 725.342 236.727C725.855 237.339 726.575 237.645 727.502 237.645C728.428 237.645 729.14 237.339 729.636 236.727C730.133 236.131 730.381 235.27 730.381 234.145L730.381 229.008L724.598 229.008L724.598 234.145ZM715.439 241.993L727.849 241.993L727.849 244.475L725.938 244.475L725.938 244.649C726.683 244.897 727.204 245.269 727.502 245.766C727.816 246.262 727.973 246.949 727.973 247.826L727.973 248.496L725.491 248.496L725.491 246.858C725.491 246.031 725.21 245.427 724.647 245.046C724.101 244.666 723.349 244.475 722.389 244.475L715.439 244.475L715.439 241.993ZM715.117 255.595C715.117 254.321 715.39 253.179 715.936 252.17C716.498 251.177 717.276 250.4 718.269 249.837C719.262 249.274 720.387 248.993 721.644 248.993C722.902 248.993 724.027 249.274 725.02 249.837C726.013 250.4 726.782 251.177 727.328 252.17C727.891 253.179 728.172 254.321 728.172 255.595C728.172 256.869 727.891 258.003 727.328 258.995C726.782 260.005 726.013 260.791 725.02 261.353C724.027 261.916 722.902 262.197 721.644 262.197C720.387 262.197 719.262 261.916 718.269 261.353C717.276 260.791 716.498 260.005 715.936 258.995C715.39 258.003 715.117 256.869 715.117 255.595ZM717.475 255.595C717.475 256.803 717.855 257.771 718.616 258.499C719.377 259.227 720.387 259.591 721.644 259.591C722.902 259.591 723.911 259.227 724.672 258.499C725.433 257.771 725.814 256.803 725.814 255.595C725.814 254.387 725.433 253.419 724.672 252.691C723.911 251.963 722.902 251.599 721.644 251.599C720.387 251.599 719.377 251.963 718.616 252.691C717.855 253.419 717.475 254.387 717.475 255.595ZM715.117 269.558C715.117 268.366 715.39 267.307 715.936 266.381C716.498 265.454 717.276 264.726 718.269 264.197C719.262 263.684 720.387 263.427 721.644 263.427C722.885 263.427 724.002 263.684 724.995 264.197C725.988 264.726 726.765 265.454 727.328 266.381C727.891 267.307 728.172 268.366 728.172 269.558C728.172 270.451 727.99 271.295 727.626 272.089C727.262 272.9 726.699 273.52 725.938 273.951L725.938 274.124L732.813 274.124L732.813 276.606L715.439 276.606L715.439 274.124L717.351 274.124L717.351 273.951C716.589 273.52 716.027 272.908 715.663 272.114C715.299 271.32 715.117 270.468 715.117 269.558ZM717.475 270.079C717.475 271.303 717.847 272.279 718.592 273.007C719.353 273.752 720.37 274.124 721.644 274.124C722.918 274.124 723.928 273.752 724.672 273.007C725.433 272.279 725.814 271.303 725.814 270.079C725.814 268.854 725.433 267.87 724.672 267.125C723.928 266.397 722.918 266.033 721.644 266.033C720.37 266.033 719.353 266.397 718.592 267.125C717.847 267.87 717.475 268.854 717.475 270.079ZM715.117 283.799C715.117 282.392 715.555 281.284 716.432 280.473C717.326 279.679 718.558 279.282 720.13 279.282L727.849 279.282L727.849 281.764L720.577 281.764C719.584 281.764 718.815 282.012 718.269 282.508C717.739 283.021 717.475 283.749 717.475 284.692C717.475 285.635 717.748 286.363 718.294 286.876C718.84 287.389 719.601 287.646 720.577 287.646L727.849 287.646L727.849 290.128L715.439 290.128L715.439 287.646L717.053 287.646L717.053 287.472C716.391 287.108 715.903 286.603 715.588 285.958C715.274 285.313 715.117 284.593 715.117 283.799ZM715.117 298.679C715.117 297.404 715.39 296.271 715.936 295.278C716.498 294.286 717.276 293.508 718.269 292.945C719.262 292.383 720.387 292.101 721.644 292.101C722.885 292.101 724.002 292.383 724.995 292.945C725.988 293.508 726.765 294.286 727.328 295.278C727.891 296.271 728.172 297.404 728.172 298.679C728.172 299.82 727.948 300.846 727.502 301.756C727.071 302.666 726.459 303.403 725.665 303.965C724.871 304.528 723.969 304.859 722.96 304.958L722.96 302.476C723.837 302.31 724.532 301.88 725.045 301.185C725.557 300.49 725.814 299.646 725.814 298.654C725.814 297.462 725.433 296.503 724.672 295.775C723.911 295.063 722.902 294.707 721.644 294.707C720.387 294.707 719.377 295.063 718.616 295.775C717.855 296.503 717.475 297.462 717.475 298.654C717.475 299.646 717.739 300.49 718.269 301.185C718.798 301.88 719.502 302.31 720.379 302.476L720.379 304.958C719.353 304.875 718.443 304.552 717.648 303.99C716.854 303.444 716.234 302.708 715.787 301.781C715.34 300.854 715.117 299.82 715.117 298.679ZM725.615 313.648L725.615 310.421L718.865 310.421C718.401 310.421 718.087 310.504 717.921 310.669C717.756 310.835 717.673 311.149 717.673 311.613L717.673 313.648L715.439 313.648L715.439 311.24C715.439 310.032 715.688 309.18 716.184 308.684C716.68 308.187 717.533 307.939 718.74 307.939L725.615 307.939L725.615 305.333L727.849 305.333L727.849 307.939L731.82 307.939L731.82 310.421L727.849 310.421L727.849 313.648L725.615 313.648ZM715.117 320.349C715.117 319.207 715.299 318.206 715.663 317.346C716.043 316.502 716.556 315.848 717.202 315.385C717.863 314.922 718.616 314.674 719.46 314.641L719.46 317.122C718.831 317.205 718.327 317.528 717.946 318.09C717.582 318.653 717.4 319.439 717.4 320.448C717.4 322.252 717.921 323.154 718.964 323.154C719.46 323.154 719.832 322.93 720.081 322.483C720.345 322.053 720.544 321.309 720.676 320.25C720.891 318.496 721.297 317.205 721.892 316.378C722.505 315.567 723.34 315.162 724.399 315.162C725.574 315.162 726.492 315.625 727.154 316.552C727.833 317.495 728.172 318.736 728.172 320.275C728.172 321.267 727.99 322.169 727.626 322.98C727.278 323.791 726.79 324.436 726.161 324.916C725.533 325.396 724.821 325.66 724.027 325.71L724.027 323.228C724.606 323.145 725.061 322.839 725.392 322.31C725.723 321.78 725.888 321.036 725.888 320.076C725.888 319.315 725.773 318.736 725.541 318.339C725.309 317.958 724.97 317.768 724.523 317.768C724.044 317.768 723.679 318.008 723.431 318.488C723.183 318.967 722.993 319.795 722.86 320.969C722.678 322.591 722.281 323.791 721.669 324.568C721.057 325.362 720.205 325.76 719.113 325.76C717.855 325.76 716.871 325.263 716.159 324.27C715.464 323.278 715.117 321.971 715.117 320.349Z" fill="#E3FD5A"/>
<rect x="756.549" y="0.729998" width="370.23" height="69.39" transform="rotate(90 756.549 0.729998)" stroke="white" stroke-width="1.45997"/>
<rect x="264.43" y="163" width="405" height="63" fill="#E3FD5A"/>
<path d="M303.108 204H299.428L298.009 200.084H289.574L288.128 204H284.528L291.466 185.604H296.17L303.108 204ZM293.7 188.837L290.704 196.983H296.853L293.884 188.837H293.7ZM312.935 204H308.257L301.582 185.604H305.261L310.543 200.636H310.753L316.036 185.604H319.636L312.935 204ZM329.213 204.342C323.669 204.342 319.753 200.4 319.753 194.802C319.753 189.205 323.669 185.263 329.213 185.263C334.758 185.263 338.674 189.205 338.674 194.802C338.674 200.4 334.758 204.342 329.213 204.342ZM329.213 201.057C332.761 201.057 335.048 198.586 335.048 194.802C335.048 191.018 332.761 188.548 329.213 188.548C325.666 188.548 323.379 191.018 323.379 194.802C323.379 198.586 325.666 201.057 329.213 201.057ZM344.117 204H340.754V185.604H344.117V204ZM353.309 204H347.055V185.604H353.309C360.194 185.604 363.795 189.52 363.795 194.802C363.795 200.111 360.168 204 353.309 204ZM350.497 188.837V200.768H353.309C358.118 200.768 360.168 198.271 360.168 194.802C360.168 191.281 358.066 188.837 353.309 188.837H350.497ZM384.57 185.604V188.705H375.109V193.541H383.939V196.642H375.109V204H371.667V185.604H384.57ZM395.056 204.342C389.511 204.342 385.595 200.4 385.595 194.802C385.595 189.205 389.511 185.263 395.056 185.263C400.601 185.263 404.516 189.205 404.516 194.802C404.516 200.4 400.601 204.342 395.056 204.342ZM395.056 201.057C398.603 201.057 400.89 198.586 400.89 194.802C400.89 191.018 398.603 188.548 395.056 188.548C391.508 188.548 389.222 191.018 389.222 194.802C389.222 198.586 391.508 201.057 395.056 201.057ZM422.469 204H418.422L413.507 196.931H410.038V204H406.596V185.604H415.373C419.63 185.604 422.022 187.97 422.022 191.281C422.022 194.04 420.366 196.116 417.344 196.747L422.469 204ZM415.321 188.705H410.038V193.856H415.321C417.344 193.856 418.474 192.91 418.474 191.281C418.474 189.651 417.344 188.705 415.321 188.705ZM442.796 204H430.182V185.604H433.624V200.768H442.796V204ZM447.52 204H444.156V185.604H447.52V204ZM453.847 204H450.457V185.604H455.318L460.942 197.903H461.126L466.776 185.604H471.533V204H468.117V190.046H467.906L462.65 201.451H459.313L454.057 190.046H453.847V204ZM477.829 204H474.465V185.604H477.829V204ZM488.966 204H485.523V188.758H479.426V185.604H495.089V188.758H488.966V204ZM500.134 196.116V200.899H510.12V204H496.691V185.604H509.962V188.705H500.134V193.12H509.331V196.116H500.134ZM518.537 204H512.282V185.604H518.537C525.422 185.604 529.022 189.52 529.022 194.802C529.022 200.111 525.396 204 518.537 204ZM515.725 188.837V200.768H518.537C523.346 200.768 525.396 198.271 525.396 194.802C525.396 191.281 523.293 188.837 518.537 188.837H515.725ZM552.767 204H548.72L543.806 196.931H540.337V204H536.894V185.604H545.672C549.929 185.604 552.32 187.97 552.32 191.281C552.32 194.04 550.665 196.116 547.643 196.747L552.767 204ZM545.619 188.705H540.337V193.856H545.619C547.643 193.856 548.773 192.91 548.773 191.281C548.773 189.651 547.643 188.705 545.619 188.705ZM558.135 196.116V200.899H568.121V204H554.693V185.604H567.964V188.705H558.135V193.12H567.333V196.116H558.135ZM577.721 204.342C572.465 204.342 569.522 201.609 569.469 197.667H572.99C573.017 199.743 574.777 201.162 577.826 201.162C580.033 201.162 581.531 200.426 581.531 198.744C581.531 197.246 580.533 196.615 577.458 196.142C571.939 195.302 570.205 193.988 570.205 190.808C570.205 187.365 572.964 185.263 577.458 185.263C582.031 185.263 584.921 187.812 584.974 191.386H581.426C581.4 189.336 579.587 188.443 577.274 188.443C575.172 188.443 573.753 189.126 573.753 190.65C573.753 192.069 574.751 192.621 578.246 193.094C583.108 193.751 585.079 195.354 585.079 198.613C585.079 202.213 582.162 204.342 577.721 204.342ZM595.192 204.342C590.541 204.342 587.334 201.241 587.334 195.959V185.604H590.777V195.853C590.777 199.349 592.485 201.057 595.192 201.057C597.925 201.057 599.659 199.349 599.659 195.853V185.604H603.023V195.959C603.023 201.241 599.817 204.342 595.192 204.342ZM618.443 204H605.829V185.604H609.271V200.768H618.443V204ZM624.845 204H621.403V188.758H615.306V185.604H630.968V188.758H624.845V204ZM639.084 204.342C633.828 204.342 630.885 201.609 630.832 197.667H634.354C634.38 199.743 636.141 201.162 639.189 201.162C641.397 201.162 642.895 200.426 642.895 198.744C642.895 197.246 641.896 196.615 638.821 196.142C633.303 195.302 631.568 193.988 631.568 190.808C631.568 187.365 634.328 185.263 638.821 185.263C643.394 185.263 646.285 187.812 646.337 191.386H642.79C642.763 189.336 640.95 188.443 638.637 188.443C636.535 188.443 635.116 189.126 635.116 190.65C635.116 192.069 636.115 192.621 639.61 193.094C644.471 193.751 646.442 195.354 646.442 198.613C646.442 202.213 643.525 204.342 639.084 204.342Z" fill="#56584F"/>
</svg>
