<svg width="30" height="30" viewBox="0 0 30 30" fill="none" xmlns="http://www.w3.org/2000/svg">
<g clip-path="url(#clip0_2142_22778)">
<path fill-rule="evenodd" clip-rule="evenodd" d="M3.3879 29.5048H25.8728C27.6468 29.5048 29.0849 28.0667 29.0849 26.2927V3.80782C29.0849 2.03382 27.6468 0.595703 25.8728 0.595703H3.3879C1.6139 0.595703 0.175781 2.03382 0.175781 3.80782V26.2927C0.175781 28.0667 1.6139 29.5048 3.3879 29.5048Z" fill="#171717"/>
<path fill-rule="evenodd" clip-rule="evenodd" d="M25.0702 25.4896H20.7803V18.1829C20.7803 16.1796 20.0191 15.0601 18.4334 15.0601C16.7085 15.0601 15.8073 16.2251 15.8073 18.1829V25.4896H11.673V11.5704H15.8073V13.4453C15.8073 13.4453 17.0503 11.1452 20.0041 11.1452C22.9565 11.1452 25.0702 12.9481 25.0702 16.6769V25.4896ZM6.74077 9.74783C5.33253 9.74783 4.19141 8.59775 4.19141 7.17934C4.19141 5.76092 5.33253 4.61084 6.74077 4.61084C8.149 4.61084 9.28945 5.76092 9.28945 7.17934C9.28945 8.59775 8.149 9.74783 6.74077 9.74783ZM4.60599 25.4896H8.917V11.5704H4.60599V25.4896Z" fill="#E3FD5A"/>
</g>
<defs>
<clipPath id="clip0_2142_22778">
<rect width="28.9091" height="28.9091" fill="white" transform="translate(0.171875 0.595215)"/>
</clipPath>
</defs>
</svg>
